<?xml version="1.0" encoding="UTF-8" standalone="no"?>
<!-- Generator: Adobe Illustrator 22.1.0, SVG Export Plug-In . SVG Version: 6.00 Build 0)  -->

<svg
   xmlns:dc="http://purl.org/dc/elements/1.1/"
   xmlns:cc="http://creativecommons.org/ns#"
   xmlns:rdf="http://www.w3.org/1999/02/22-rdf-syntax-ns#"
   xmlns:svg="http://www.w3.org/2000/svg"
   xmlns="http://www.w3.org/2000/svg"
   xmlns:sodipodi="http://sodipodi.sourceforge.net/DTD/sodipodi-0.dtd"
   xmlns:inkscape="http://www.inkscape.org/namespaces/inkscape"
   version="1.1"
   id="Layer_1"
   x="0px"
   y="0px"
   width="326.6px"
   height="72.3px"
   viewBox="0 0 326.6 72.3"
   style="enable-background:new 0 0 326.6 72.3;"
   xml:space="preserve"
   sodipodi:docname="chainspacewhite.svg"
   inkscape:version="0.92.3 (2405546, 2018-03-11)"><metadata
   id="metadata206"><rdf:RDF><cc:Work
       rdf:about=""><dc:format>image/svg+xml</dc:format><dc:type
         rdf:resource="http://purl.org/dc/dcmitype/StillImage" /></cc:Work></rdf:RDF></metadata><defs
   id="defs204" /><sodipodi:namedview
   pagecolor="#ffffff"
   bordercolor="#666666"
   borderopacity="1"
   objecttolerance="10"
   gridtolerance="10"
   guidetolerance="10"
   inkscape:pageopacity="0"
   inkscape:pageshadow="2"
   inkscape:window-width="1920"
   inkscape:window-height="1001"
   id="namedview202"
   showgrid="false"
   inkscape:zoom="5.3888548"
   inkscape:cx="163.3"
   inkscape:cy="36.150002"
   inkscape:window-x="-9"
   inkscape:window-y="-9"
   inkscape:window-maximized="1"
   inkscape:current-layer="Layer_1" />
<style
   type="text/css"
   id="style109">
	.st0{fill:#00618E;}
</style>
<path
   d="m 81.573578,34.432177 c 0,-1.625804 0.347388,-3.089026 0.868468,-4.71483 0.694774,-1.463224 1.563242,-2.926447 2.605404,-4.06451 1.215855,-1.138063 2.605403,-2.113545 4.342339,-2.926447 1.736935,-0.812902 3.647564,-1.138063 5.731887,-1.138063 2.605408,0 4.689725,0.487742 6.600354,1.625804 1.91063,0.975483 3.30018,2.438706 4.16865,4.06451 l -4.16865,2.601286 c -0.34738,-0.650321 -0.86846,-1.300643 -1.38954,-1.788384 -0.521089,-0.487741 -1.042165,-0.812902 -1.736941,-1.138063 -0.521077,-0.325161 -1.215857,-0.487741 -1.910631,-0.650321 -0.694774,-0.162581 -1.215855,-0.162581 -1.910629,-0.162581 -1.389549,0 -2.605403,0.325161 -3.473871,0.812902 -1.042162,0.487741 -1.910629,1.138063 -2.43171,1.950965 -0.521081,0.812902 -1.215855,1.788383 -1.563242,2.763867 -0.347387,0.975481 -0.521081,2.113544 -0.521081,3.089026 0,1.138063 0.173694,2.276125 0.521081,3.251608 0.347387,0.975482 0.868468,1.950964 1.736935,2.763865 0.694775,0.812902 1.563243,1.463224 2.605404,1.950965 1.042161,0.487741 2.084323,0.650322 3.300177,0.650322 0.694775,0 1.215855,0 1.910631,-0.162581 0.694771,-0.16258 1.389547,-0.325161 1.910635,-0.650321 0.694776,-0.325161 1.215853,-0.650322 1.736932,-1.138063 0.52107,-0.48774 0.86847,-1.138062 1.21585,-1.788383 l 4.34235,2.438704 c -0.52109,0.975483 -1.04217,1.788385 -1.91063,2.601287 -0.86848,0.812902 -1.73694,1.300643 -2.7791,1.950964 -1.04216,0.487741 -2.084325,0.975483 -3.300178,1.138063 -1.215859,0.325161 -2.258022,0.325161 -3.473877,0.325161 -1.910629,0 -3.821258,-0.325161 -5.3845,-1.138063 -1.563242,-0.812902 -2.95279,-1.788384 -4.168645,-3.089027 -1.215855,-1.300643 -2.084323,-2.601287 -2.779097,-4.227089 -0.347387,-1.950965 -0.694775,-3.576769 -0.694775,-5.202573 z"
   id="path111"
   style="fill:#ffffff;stroke-width:1.68045115"
   inkscape:connector-curvature="0" />
<path
   d="m 133.16057,21.588327 v 25.85028 h -5.3845 V 36.383142 h -12.50593 v 11.055465 h -5.3845 v -25.85028 h 5.3845 v 10.567725 h 12.50593 V 21.750908 h 5.3845 z"
   id="path113"
   style="fill:#ffffff;stroke-width:1.68045115"
   inkscape:connector-curvature="0" />
<path
   d="m 146.70866,21.588327 h 4.68974 l 10.42161,25.85028 h -5.5582 l -2.60539,-6.503214 h -9.55316 l -2.60539,6.503214 h -5.5582 z m 6.25298,15.932878 -3.82126,-10.079984 -3.99496,10.079984 z"
   id="path115"
   style="fill:#ffffff;stroke-width:1.68045115"
   inkscape:connector-curvature="0" />
<path
   d="m 164.94649,47.438607 v -25.85028 h 5.3845 v 25.85028 z"
   id="path117"
   style="fill:#ffffff;stroke-width:1.68045115"
   inkscape:connector-curvature="0" />
<path
   d="m 179.71045,30.85541 v 16.583197 h -5.3845 v -25.85028 h 4.16864 l 14.41657,16.90836 V 21.750908 h 5.3845 v 25.85028 h -4.34235 z"
   id="path119"
   style="fill:#ffffff;stroke-width:1.68045115"
   inkscape:connector-curvature="0" />
<path
   d="m 220.52843,28.416704 c -0.17369,-0.162581 -0.52108,-0.325161 -1.04216,-0.650322 -0.52108,-0.325161 -1.04216,-0.650321 -1.73693,-0.812902 -0.69478,-0.325161 -1.38956,-0.487741 -2.25802,-0.650321 -0.86847,-0.162581 -1.56324,-0.325161 -2.43172,-0.325161 -1.38954,0 -2.60539,0.325161 -3.30017,0.812902 -0.69477,0.487741 -1.04216,1.300643 -1.04216,2.113545 0,0.487741 0.17369,0.975482 0.34739,1.300643 0.34738,0.325161 0.69477,0.650322 1.21585,0.975481 0.52108,0.325161 1.21585,0.487743 1.91063,0.650322 0.86846,0.16258 1.73694,0.487741 2.77909,0.650321 1.38955,0.325161 2.60541,0.650322 3.64757,1.138063 1.04217,0.325161 2.08432,0.812902 2.7791,1.463224 0.69477,0.650321 1.38955,1.300643 1.73694,2.113545 0.34738,0.812902 0.69477,1.788384 0.69477,2.926447 0,1.300642 -0.34739,2.601285 -0.86847,3.576767 -0.52108,0.975483 -1.38955,1.788385 -2.25802,2.438706 -0.86847,0.650322 -2.08432,0.975482 -3.30017,1.300643 -1.21585,0.325161 -2.60541,0.487741 -3.82126,0.487741 -2.08433,0 -4.16865,-0.32516 -6.07927,-0.812902 -1.91063,-0.487741 -3.82126,-1.463223 -5.3845,-2.438705 l 2.4317,-4.38967 c 0.1737,0.162581 0.69478,0.48774 1.21586,0.812901 0.69477,0.325161 1.38955,0.650322 2.08432,0.975482 0.86847,0.325161 1.73693,0.650322 2.7791,0.812902 1.04216,0.162581 2.08433,0.325161 3.12648,0.325161 2.95279,0 4.34234,-0.812902 4.34234,-2.601285 0,-0.487741 -0.17369,-0.975482 -0.52108,-1.463224 -0.34739,-0.32516 -0.86847,-0.650321 -1.38954,-0.975482 -0.69478,-0.325161 -1.38956,-0.487741 -2.25802,-0.812902 -0.86848,-0.16258 -1.91063,-0.487741 -2.95279,-0.812902 -1.38956,-0.325161 -2.43171,-0.650321 -3.47387,-1.138063 -1.04217,-0.32516 -1.73694,-0.812901 -2.43172,-1.463223 -0.69477,-0.487741 -1.21585,-1.138063 -1.38954,-1.950965 -0.34739,-0.65032 -0.52109,-1.625804 -0.52109,-2.601285 0,-1.300643 0.1737,-2.438706 0.69478,-3.414188 0.52108,-0.975482 1.21585,-1.788384 2.08432,-2.601286 0.86847,-0.650322 1.91063,-1.138063 3.12649,-1.625804 1.21585,-0.325161 2.6054,-0.48774 3.99494,-0.48774 1.91063,0 3.64757,0.325159 5.38451,0.812901 1.56324,0.650321 3.12648,1.300643 4.34234,1.950964 z"
   id="path121"
   style="fill:#ffffff;stroke-width:1.68045115"
   inkscape:connector-curvature="0" />
<path
   d="m 226.95509,47.438607 v -25.85028 h 11.63747 c 1.21586,0 2.43171,0.325161 3.47388,0.812902 1.04215,0.487742 2.08431,1.138063 2.77909,1.950965 0.69478,0.812902 1.38954,1.788384 1.91063,2.763867 0.52108,0.975482 0.69478,2.113545 0.69478,3.089027 0,1.138063 -0.1737,2.113544 -0.69478,3.251607 -0.34739,0.975482 -1.04216,1.950964 -1.73694,2.763866 -0.69478,0.812902 -1.73693,1.463224 -2.77909,1.950965 -1.04217,0.487741 -2.25802,0.650322 -3.47387,0.650322 h -6.60036 v 8.616759 z m 5.3845,-13.00643 h 6.25297 c 1.04216,0 1.73694,-0.325161 2.43171,-1.138063 0.69478,-0.812902 1.04217,-1.788384 1.04217,-3.089026 0,-0.650322 -0.1737,-1.300643 -0.34739,-1.788384 -0.1737,-0.487741 -0.52109,-0.975483 -0.86848,-1.300643 -0.34738,-0.325161 -0.69476,-0.650322 -1.21585,-0.812902 -0.52108,-0.162581 -0.86846,-0.325161 -1.38954,-0.325161 h -5.90559 z"
   id="path123"
   style="fill:#ffffff;stroke-width:1.68045115"
   inkscape:connector-curvature="0" />
<path
   d="m 256.30931,21.588327 h 4.68972 l 10.42162,25.85028 h -5.5582 l -2.60541,-6.503214 h -9.55314 l -2.60541,6.503214 h -5.21079 z m 6.25296,15.932878 -3.82126,-10.079984 -3.99495,10.079984 z"
   id="path125"
   style="fill:#ffffff;stroke-width:1.68045115"
   inkscape:connector-curvature="0" />
<path
   d="m 271.07326,34.432177 c 0,-1.625804 0.34739,-3.089026 0.86847,-4.71483 0.69477,-1.463224 1.56324,-2.926447 2.6054,-4.06451 1.21585,-1.138063 2.60541,-2.113545 4.34234,-2.926447 1.73694,-0.812902 3.64756,-1.138063 5.73188,-1.138063 2.60541,0 4.68974,0.487742 6.60036,1.625804 1.91063,0.975483 3.30018,2.438706 4.16864,4.06451 l -4.16864,2.601286 c -0.34738,-0.650321 -0.86847,-1.300643 -1.38955,-1.788384 -0.52107,-0.487741 -1.04216,-0.812902 -1.73694,-1.138063 -0.52107,-0.325161 -1.21585,-0.487741 -1.91063,-0.650321 -0.69477,-0.162581 -1.21585,-0.162581 -1.91063,-0.162581 -1.38954,0 -2.6054,0.325161 -3.47387,0.812902 -1.04216,0.487741 -1.91062,1.138063 -2.4317,1.950965 -0.52109,0.812902 -1.21585,1.788383 -1.56324,2.763867 -0.34739,0.975481 -0.52109,2.113544 -0.52109,3.089026 0,1.138063 0.1737,2.276125 0.52109,3.251608 0.34739,0.975482 0.86846,1.950964 1.73693,2.763865 0.69477,0.812902 1.56324,1.463224 2.6054,1.950965 1.04217,0.487741 2.08433,0.650322 3.30018,0.650322 0.69478,0 1.21586,0 1.91063,-0.162581 0.69478,-0.16258 1.38954,-0.325161 1.91063,-0.650321 0.69478,-0.325161 1.21585,-0.650322 1.73693,-1.138063 0.52109,-0.48774 0.86848,-1.138062 1.21586,-1.788383 l 4.34234,2.438704 c -0.52108,0.975483 -1.04216,1.788385 -1.91063,2.601287 -0.86846,0.812902 -1.73694,1.300643 -2.77909,1.950964 -1.04217,0.487741 -2.08433,0.975483 -3.30018,1.138063 -1.21586,0.16258 -2.25802,0.325161 -3.47387,0.325161 -1.91063,0 -3.82126,-0.325161 -5.3845,-1.138063 -1.56324,-0.812902 -2.9528,-1.788384 -4.16865,-3.089027 -1.21585,-1.300643 -2.08433,-2.601287 -2.7791,-4.227089 -0.34738,-1.950965 -0.69477,-3.576769 -0.69477,-5.202573 z"
   id="path127"
   style="fill:#ffffff;stroke-width:1.68045115"
   inkscape:connector-curvature="0" />
<path
   d="m 318.4916,43.048937 v 4.38967 h -19.10629 v -25.85028 h 18.7589 v 4.389671 h -13.3744 v 6.178054 h 11.63747 v 4.064509 h -11.63747 v 6.665795 h 13.72179 z"
   id="path129"
   style="fill:#ffffff;stroke-width:1.68045115"
   inkscape:connector-curvature="0" />
<path
   class="st0"
   d="m 36.586945,68.086315 c -0.173693,0 -0.347387,0 -0.52108,0 v 2.763865 l 0.52108,0.325161 0.347387,-0.16258 v -2.763866 c 0,-0.16258 -0.173693,-0.16258 -0.347387,-0.16258 z"
   id="path131"
   inkscape:connector-curvature="0"
   style="fill:#00618e;stroke-width:1.68045115" />
<g
   id="g199"
   transform="matrix(1.7369356,0,0,1.6258037,4.4536369,-23.121274)">
	<path
   class="st0"
   d="M 18.2,53 V 41 c -1,-0.1 -1.9,-0.4 -2.6,-1 l -3.4,3.6 5.6,9.5 C 18,53 18.1,53 18.2,53 Z"
   id="path133"
   inkscape:connector-curvature="0"
   style="fill:#00618e" />
	<path
   class="st0"
   d="m 33.2,44.3 c 0,0.2 0,0.3 -0.1,0.5 l 3.9,1.9 v -6.2 l -4,3.1 c 0.1,0.3 0.2,0.5 0.2,0.7 z"
   id="path135"
   inkscape:connector-curvature="0"
   style="fill:#00618e" />
	<path
   class="st0"
   d="m 32.3,33.7 -3.2,0.9 2.3,8.2 c 0.1,0 0.1,0 0.2,0 0,0 0,0 0,0 l 1.6,-8.2 c -0.4,-0.2 -0.7,-0.5 -0.9,-0.9 z"
   id="path137"
   inkscape:connector-curvature="0"
   style="fill:#00618e" />
	<path
   class="st0"
   d="m 22.9,36.3 c 0,0.1 0,0.2 0,0.3 0,1 -0.3,1.9 -0.9,2.7 l 8.4,4.2 C 30.6,43.3 30.8,43.1 31,43 l -2.3,-8.2 z"
   id="path139"
   inkscape:connector-curvature="0"
   style="fill:#00618e" />
	<path
   class="st0"
   d="m 29,34.1 3.2,-0.9 c 0,-0.1 0,-0.1 0,-0.2 0,-0.3 0.1,-0.5 0.2,-0.8 L 28,28.8 c -0.1,0.1 -0.2,0.2 -0.4,0.3 z"
   id="path141"
   inkscape:connector-curvature="0"
   style="fill:#00618e" />
	<path
   class="st0"
   d="m 27.8,26.4 3.5,-3.7 -5.2,-3 0.9,6.5 c 0.3,-0.1 0.6,0 0.8,0.2 z"
   id="path143"
   inkscape:connector-curvature="0"
   style="fill:#00618e" />
	<path
   class="st0"
   d="m 14.3,35.4 c 0.3,-1.3 1.2,-2.3 2.4,-2.8 l -1.2,-3.1 -9.7,1.4 c 0,0.1 0,0.2 -0.1,0.3 z"
   id="path145"
   inkscape:connector-curvature="0"
   style="fill:#00618e" />
	<path
   class="st0"
   d="m 25.6,26.9 c 0.2,-0.3 0.5,-0.6 0.9,-0.7 l -0.9,-6.9 -6.8,-3.9 v 8.9 z"
   id="path147"
   inkscape:connector-curvature="0"
   style="fill:#00618e" />
	<path
   class="st0"
   d="m 28.2,26.7 c 0.2,0.3 0.3,0.6 0.3,0.9 0,0.3 -0.1,0.5 -0.2,0.8 l 4.4,3.5 c 0.3,-0.3 0.6,-0.4 1.1,-0.4 0.6,0 1.2,0.4 1.4,0.9 L 37,31.9 v -6 l -5.2,-3 z"
   id="path149"
   inkscape:connector-curvature="0"
   style="fill:#00618e" />
	<path
   class="st0"
   d="m 35.3,33.1 c 0,0.9 -0.7,1.6 -1.6,1.6 0,0 0,0 0,0 l -1.6,8.2 c 0.2,0.1 0.4,0.2 0.6,0.4 L 37,40 V 32.5 L 35.3,33 c 0,0 0,0 0,0.1 z"
   id="path151"
   inkscape:connector-curvature="0"
   style="fill:#00618e" />
	<path
   class="st0"
   d="m 18.8,41 v 12 c 0.3,0.1 0.6,0.2 0.8,0.4 l 3.9,-3 -3.7,-9.6 c -0.3,0.1 -0.7,0.1 -1,0.2 z"
   id="path153"
   inkscape:connector-curvature="0"
   style="fill:#00618e" />
	<path
   class="st0"
   d="m 11.9,43.9 -2.6,2.7 8.1,6.7 c 0,0 0,0 0,0 z"
   id="path155"
   inkscape:connector-curvature="0"
   style="fill:#00618e" />
	<path
   class="st0"
   d="m 25.4,27.7 c 0,-0.1 0,-0.2 0,-0.3 l -6.6,-2.6 v 3.8 z"
   id="path157"
   inkscape:connector-curvature="0"
   style="fill:#00618e" />
	<path
   class="st0"
   d="m 27.1,29.2 c -0.1,0 -0.1,0 -0.2,0 -0.3,0 -0.6,-0.1 -0.9,-0.3 l -4.4,4.6 c 0.6,0.6 1,1.3 1.1,2.2 l 5.7,-1.5 z"
   id="path159"
   inkscape:connector-curvature="0"
   style="fill:#00618e" />
	<path
   class="st0"
   d="m 9.6,39.9 -5.3,1.4 c 0,0.1 0,0.1 0,0.2 0,0.3 -0.1,0.6 -0.2,0.8 l 4.9,4 2.7,-2.9 z"
   id="path161"
   inkscape:connector-curvature="0"
   style="fill:#00618e" />
	<path
   class="st0"
   d="m 30.1,43.9 -8.5,-4.2 c -0.4,0.4 -0.8,0.7 -1.3,0.9 l 3.6,9.5 6.4,-4.9 c -0.1,-0.2 -0.2,-0.5 -0.2,-0.8 -0.1,-0.2 0,-0.4 0,-0.5 z"
   id="path163"
   inkscape:connector-curvature="0"
   style="fill:#00618e" />
	<path
   class="st0"
   d="m 14.3,22.2 c 0,0.1 0,0.2 0,0.3 l 3.9,1.5 v -8.7 l -2.5,1.5 -2,4.2 c 0.4,0.3 0.6,0.7 0.6,1.2 z"
   id="path165"
   inkscape:connector-curvature="0"
   style="fill:#00618e" />
	<path
   class="st0"
   d="m 13.8,23.5 2.1,5.5 2.4,-0.3 v -4 L 14.1,23 c -0.1,0.2 -0.2,0.3 -0.3,0.5 z"
   id="path167"
   inkscape:connector-curvature="0"
   style="fill:#00618e" />
	<path
   class="st0"
   d="m 15.4,29.1 -2,-5.4 c -0.2,0.1 -0.4,0.1 -0.5,0.1 -0.3,0 -0.6,-0.1 -0.9,-0.3 l -6.4,6.2 c 0.2,0.2 0.3,0.4 0.3,0.7 z"
   id="path169"
   inkscape:connector-curvature="0"
   style="fill:#00618e" />
	<path
   class="st0"
   d="m 12.8,20.7 c 0.2,0 0.3,0 0.5,0.1 l 1.7,-3.5 -3,1.7 0.8,1.7 c -0.1,0 -0.1,0 0,0 z"
   id="path171"
   inkscape:connector-curvature="0"
   style="fill:#00618e" />
	<path
   class="st0"
   d="M 4.1,40.9 9.3,39.5 4.9,32.1 c -0.2,0.1 -0.4,0.2 -0.7,0.2 0,0 -0.1,0 -0.1,0 l -1,7.8 c 0.5,0 0.8,0.3 1,0.8 z"
   id="path173"
   inkscape:connector-curvature="0"
   style="fill:#00618e" />
	<path
   class="st0"
   d="m 18.8,32.2 c 1,0.1 1.9,0.4 2.6,1 l 4.4,-4.6 C 25.7,28.5 25.6,28.3 25.6,28.1 L 18.9,29 v 3.2 z"
   id="path175"
   inkscape:connector-curvature="0"
   style="fill:#00618e" />
	<path
   class="st0"
   d="M 15.3,39.6 C 15,39.3 14.8,38.9 14.6,38.5 l -4.5,1.2 2,3.3 z"
   id="path177"
   inkscape:connector-curvature="0"
   style="fill:#00618e" />
	<path
   class="st0"
   d="m 2.7,30.7 c 0,-0.1 0,-0.3 0.1,-0.4 L 0,28.9 v 5.4 L 2.9,31.5 C 2.8,31.2 2.7,31 2.7,30.7 Z"
   id="path179"
   inkscape:connector-curvature="0"
   style="fill:#00618e" />
	<path
   class="st0"
   d="m 14.4,38.1 c -0.2,-0.5 -0.3,-1 -0.3,-1.5 0,-0.2 0,-0.4 0.1,-0.6 L 5.5,31.7 c 0,0.1 -0.1,0.1 -0.1,0.2 l 4.4,7.5 z"
   id="path181"
   inkscape:connector-curvature="0"
   style="fill:#00618e" />
	<path
   class="st0"
   d="m 3.7,42.7 c -0.3,0.2 -0.6,0.4 -1,0.4 -0.6,0 -1.2,-0.4 -1.4,-0.9 L 0,42.5 v 4.8 l 5.2,3 3.4,-3.6 z"
   id="path183"
   inkscape:connector-curvature="0"
   style="fill:#00618e" />
	<path
   class="st0"
   d="m 12.2,20.8 -0.6,-1.6 -2.4,1.4 2.2,0.9 c 0.2,-0.3 0.5,-0.6 0.8,-0.7 z"
   id="path185"
   inkscape:connector-curvature="0"
   style="fill:#00618e" />
	<path
   class="st0"
   d="m 1.1,41.5 c 0,-0.8 0.7,-1.5 1.5,-1.6 l 1,-7.8 C 3.4,32 3.3,31.9 3.2,31.8 L 0,35 v 4.9 2.1 l 1.1,-0.3 c 0,-0.1 0,-0.1 0,-0.2 z"
   id="path187"
   inkscape:connector-curvature="0"
   style="fill:#00618e" />
	<path
   class="st0"
   d="m 19.9,53.8 c 0.1,0.2 0.2,0.5 0.2,0.7 0,0.8 -0.6,1.4 -1.3,1.5 v 1.7 L 25,54.1 23.7,50.7 Z"
   id="path189"
   inkscape:connector-curvature="0"
   style="fill:#00618e" />
	<path
   class="st0"
   d="m 17.2,32.4 c 0.3,-0.1 0.7,-0.2 1.1,-0.2 v -3.1 l -2.2,0.3 z"
   id="path191"
   inkscape:connector-curvature="0"
   style="fill:#00618e" />
	<path
   class="st0"
   d="m 4.3,29.1 c 0.3,0 0.6,0.1 0.9,0.3 l 6.4,-6.2 c -0.2,-0.3 -0.3,-0.6 -0.3,-0.9 0,-0.1 0,-0.2 0,-0.3 L 8.7,21 0.1,26 v 2.4 l 3,1.5 c 0.1,-0.5 0.6,-0.8 1.2,-0.8 z"
   id="path193"
   inkscape:connector-curvature="0"
   style="fill:#00618e" />
	<path
   class="st0"
   d="m 31.6,45.9 c -0.4,0 -0.7,-0.1 -1,-0.4 l -6.5,5 1.3,3.4 11.6,-6.6 -4.1,-2 c -0.3,0.3 -0.8,0.6 -1.3,0.6 z"
   id="path195"
   inkscape:connector-curvature="0"
   style="fill:#00618e" />
	<path
   class="st0"
   d="m 16.9,54.5 c 0,-0.3 0.1,-0.6 0.2,-0.8 L 9,47 5.7,50.5 18.3,57.8 V 56.1 C 17.5,56 16.9,55.3 16.9,54.5 Z"
   id="path197"
   inkscape:connector-curvature="0"
   style="fill:#00618e" />
</g>
</svg>