<?xml version="1.0" encoding="utf-8"?>
<!-- Generator: Adobe Illustrator 22.1.0, SVG Export Plug-In . SVG Version: 6.00 Build 0)  -->
<svg version="1.1" id="Layer_1" xmlns="http://www.w3.org/2000/svg" xmlns:xlink="http://www.w3.org/1999/xlink" x="0px" y="0px"
	 width="326.6px" height="72.3px" viewBox="0 0 326.6 72.3" style="enable-background:new 0 0 326.6 72.3;" xml:space="preserve">
<style type="text/css">
	.st0{fill:#00618E;}
</style>
<path d="M44.4,35.4c0-1,0.2-1.9,0.5-2.9c0.4-0.9,0.9-1.8,1.5-2.5c0.7-0.7,1.5-1.3,2.5-1.8c1-0.5,2.1-0.7,3.3-0.7
	c1.5,0,2.7,0.3,3.8,1c1.1,0.6,1.9,1.5,2.4,2.5l-2.4,1.6c-0.2-0.4-0.5-0.8-0.8-1.1c-0.3-0.3-0.6-0.5-1-0.7c-0.3-0.2-0.7-0.3-1.1-0.4
	c-0.4-0.1-0.7-0.1-1.1-0.1c-0.8,0-1.5,0.2-2,0.5c-0.6,0.3-1.1,0.7-1.4,1.2s-0.7,1.1-0.9,1.7c-0.2,0.6-0.3,1.3-0.3,1.9
	c0,0.7,0.1,1.4,0.3,2c0.2,0.6,0.5,1.2,1,1.7c0.4,0.5,0.9,0.9,1.5,1.2c0.6,0.3,1.2,0.4,1.9,0.4c0.4,0,0.7,0,1.1-0.1
	c0.4-0.1,0.8-0.2,1.1-0.4c0.4-0.2,0.7-0.4,1-0.7c0.3-0.3,0.5-0.7,0.7-1.1l2.5,1.5c-0.3,0.6-0.6,1.1-1.1,1.6c-0.5,0.5-1,0.8-1.6,1.2
	c-0.6,0.3-1.2,0.6-1.9,0.7c-0.7,0.2-1.3,0.2-2,0.2c-1.1,0-2.2-0.2-3.1-0.7c-0.9-0.5-1.7-1.1-2.4-1.9c-0.7-0.8-1.2-1.6-1.6-2.6
	C44.6,37.4,44.4,36.4,44.4,35.4z"/>
<path d="M74.1,27.5v15.9H71v-6.8h-7.2v6.8h-3.1V27.5h3.1V34H71v-6.4H74.1z"/>
<path d="M81.9,27.5h2.7l6,15.9h-3.2l-1.5-4h-5.5l-1.5,4h-3.2L81.9,27.5z M85.5,37.3l-2.2-6.2L81,37.3H85.5z"/>
<path d="M92.4,43.4V27.5h3.1v15.9H92.4z"/>
<path d="M100.9,33.2v10.2h-3.1V27.5h2.4l8.3,10.4V27.6h3.1v15.9h-2.5L100.9,33.2z"/>
<path d="M124.4,31.7c-0.1-0.1-0.3-0.2-0.6-0.4c-0.3-0.2-0.6-0.4-1-0.5c-0.4-0.2-0.8-0.3-1.3-0.4c-0.5-0.1-0.9-0.2-1.4-0.2
	c-0.8,0-1.5,0.2-1.9,0.5c-0.4,0.3-0.6,0.8-0.6,1.3c0,0.3,0.1,0.6,0.2,0.8c0.2,0.2,0.4,0.4,0.7,0.6c0.3,0.2,0.7,0.3,1.1,0.4
	c0.5,0.1,1,0.3,1.6,0.4c0.8,0.2,1.5,0.4,2.1,0.7c0.6,0.2,1.2,0.5,1.6,0.9c0.4,0.4,0.8,0.8,1,1.3c0.2,0.5,0.4,1.1,0.4,1.8
	c0,0.8-0.2,1.6-0.5,2.2c-0.3,0.6-0.8,1.1-1.3,1.5c-0.5,0.4-1.2,0.6-1.9,0.8c-0.7,0.2-1.5,0.3-2.2,0.3c-1.2,0-2.4-0.2-3.5-0.5
	s-2.2-0.9-3.1-1.5l1.4-2.7c0.1,0.1,0.4,0.3,0.7,0.5c0.4,0.2,0.8,0.4,1.2,0.6c0.5,0.2,1,0.4,1.6,0.5c0.6,0.1,1.2,0.2,1.8,0.2
	c1.7,0,2.5-0.5,2.5-1.6c0-0.3-0.1-0.6-0.3-0.9c-0.2-0.2-0.5-0.4-0.8-0.6c-0.4-0.2-0.8-0.3-1.3-0.5c-0.5-0.1-1.1-0.3-1.7-0.5
	c-0.8-0.2-1.4-0.4-2-0.7c-0.6-0.2-1-0.5-1.4-0.9c-0.4-0.3-0.7-0.7-0.8-1.2c-0.2-0.4-0.3-1-0.3-1.6c0-0.8,0.1-1.5,0.4-2.1
	c0.3-0.6,0.7-1.1,1.2-1.6c0.5-0.4,1.1-0.7,1.8-1c0.7-0.2,1.5-0.3,2.3-0.3c1.1,0,2.1,0.2,3.1,0.5c0.9,0.4,1.8,0.8,2.5,1.2L124.4,31.7
	z"/>
<path d="M128.1,43.4V27.5h6.7c0.7,0,1.4,0.2,2,0.5c0.6,0.3,1.2,0.7,1.6,1.2c0.4,0.5,0.8,1.1,1.1,1.7c0.3,0.6,0.4,1.3,0.4,1.9
	c0,0.7-0.1,1.3-0.4,2c-0.2,0.6-0.6,1.2-1,1.7c-0.4,0.5-1,0.9-1.6,1.2c-0.6,0.3-1.3,0.4-2,0.4h-3.8v5.3H128.1z M131.2,35.4h3.6
	c0.6,0,1-0.2,1.4-0.7c0.4-0.5,0.6-1.1,0.6-1.9c0-0.4-0.1-0.8-0.2-1.1c-0.1-0.3-0.3-0.6-0.5-0.8c-0.2-0.2-0.4-0.4-0.7-0.5
	c-0.3-0.1-0.5-0.2-0.8-0.2h-3.4V35.4z"/>
<path d="M145,27.5h2.7l6,15.9h-3.2l-1.5-4h-5.5l-1.5,4H139L145,27.5z M148.6,37.3l-2.2-6.2l-2.3,6.2H148.6z"/>
<path d="M153.5,35.4c0-1,0.2-1.9,0.5-2.9c0.4-0.9,0.9-1.8,1.5-2.5c0.7-0.7,1.5-1.3,2.5-1.8c1-0.5,2.1-0.7,3.3-0.7
	c1.5,0,2.7,0.3,3.8,1c1.1,0.6,1.9,1.5,2.4,2.5l-2.4,1.6c-0.2-0.4-0.5-0.8-0.8-1.1c-0.3-0.3-0.6-0.5-1-0.7c-0.3-0.2-0.7-0.3-1.1-0.4
	c-0.4-0.1-0.7-0.1-1.1-0.1c-0.8,0-1.5,0.2-2,0.5c-0.6,0.3-1.1,0.7-1.4,1.2s-0.7,1.1-0.9,1.7c-0.2,0.6-0.3,1.3-0.3,1.9
	c0,0.7,0.1,1.4,0.3,2c0.2,0.6,0.5,1.2,1,1.7c0.4,0.5,0.9,0.9,1.5,1.2c0.6,0.3,1.2,0.4,1.9,0.4c0.4,0,0.7,0,1.1-0.1s0.8-0.2,1.1-0.4
	c0.4-0.2,0.7-0.4,1-0.7c0.3-0.3,0.5-0.7,0.7-1.1l2.5,1.5c-0.3,0.6-0.6,1.1-1.1,1.6c-0.5,0.5-1,0.8-1.6,1.2c-0.6,0.3-1.2,0.6-1.9,0.7
	s-1.3,0.2-2,0.2c-1.1,0-2.2-0.2-3.1-0.7c-0.9-0.5-1.7-1.1-2.4-1.9c-0.7-0.8-1.2-1.6-1.6-2.6C153.7,37.4,153.5,36.4,153.5,35.4z"/>
<path d="M180.8,40.7v2.7h-11V27.5h10.8v2.7h-7.7v3.8h6.7v2.5h-6.7v4.1H180.8z"/>
<path class="st0" d="M18.5,56.1c-0.1,0-0.2,0-0.3,0v1.7l0.3,0.2l0.2-0.1v-1.7C18.7,56.1,18.6,56.1,18.5,56.1z"/>
<g>
	<path class="st0" d="M18.2,53V41c-1-0.1-1.9-0.4-2.6-1l-3.4,3.6l5.6,9.5C18,53,18.1,53,18.2,53z"/>
	<path class="st0" d="M33.2,44.3c0,0.2,0,0.3-0.1,0.5l3.9,1.9v-6.2l-4,3.1C33.1,43.9,33.2,44.1,33.2,44.3z"/>
	<path class="st0" d="M32.3,33.7l-3.2,0.9l2.3,8.2c0.1,0,0.1,0,0.2,0c0,0,0,0,0,0l1.6-8.2C32.8,34.4,32.5,34.1,32.3,33.7z"/>
	<path class="st0" d="M22.9,36.3c0,0.1,0,0.2,0,0.3c0,1-0.3,1.9-0.9,2.7l8.4,4.2c0.2-0.2,0.4-0.4,0.6-0.5l-2.3-8.2L22.9,36.3z"/>
	<path class="st0" d="M29,34.1l3.2-0.9c0-0.1,0-0.1,0-0.2c0-0.3,0.1-0.5,0.2-0.8L28,28.8c-0.1,0.1-0.2,0.2-0.4,0.3L29,34.1z"/>
	<path class="st0" d="M27.8,26.4l3.5-3.7l-5.2-3l0.9,6.5C27.3,26.1,27.6,26.2,27.8,26.4z"/>
	<path class="st0" d="M14.3,35.4c0.3-1.3,1.2-2.3,2.4-2.8l-1.2-3.1l-9.7,1.4c0,0.1,0,0.2-0.1,0.3L14.3,35.4z"/>
	<path class="st0" d="M25.6,26.9c0.2-0.3,0.5-0.6,0.9-0.7l-0.9-6.9l-6.8-3.9v8.9L25.6,26.9z"/>
	<path class="st0" d="M28.2,26.7c0.2,0.3,0.3,0.6,0.3,0.9c0,0.3-0.1,0.5-0.2,0.8l4.4,3.5c0.3-0.3,0.6-0.4,1.1-0.4
		c0.6,0,1.2,0.4,1.4,0.9l1.8-0.5v-6l-5.2-3L28.2,26.7z"/>
	<path class="st0" d="M35.3,33.1c0,0.9-0.7,1.6-1.6,1.6c0,0,0,0,0,0l-1.6,8.2c0.2,0.1,0.4,0.2,0.6,0.4l4.3-3.3v-7.5l-1.7,0.5
		C35.3,33,35.3,33,35.3,33.1z"/>
	<path class="st0" d="M18.8,41v12c0.3,0.1,0.6,0.2,0.8,0.4l3.9-3l-3.7-9.6C19.5,40.9,19.1,40.9,18.8,41z"/>
	<path class="st0" d="M11.9,43.9l-2.6,2.7l8.1,6.7c0,0,0,0,0,0L11.9,43.9z"/>
	<path class="st0" d="M25.4,27.7c0-0.1,0-0.2,0-0.3l-6.6-2.6v3.8L25.4,27.7z"/>
	<path class="st0" d="M27.1,29.2c-0.1,0-0.1,0-0.2,0c-0.3,0-0.6-0.1-0.9-0.3l-4.4,4.6c0.6,0.6,1,1.3,1.1,2.2l5.7-1.5L27.1,29.2z"/>
	<path class="st0" d="M9.6,39.9l-5.3,1.4c0,0.1,0,0.1,0,0.2c0,0.3-0.1,0.6-0.2,0.8l4.9,4l2.7-2.9L9.6,39.9z"/>
	<path class="st0" d="M30.1,43.9l-8.5-4.2c-0.4,0.4-0.8,0.7-1.3,0.9l3.6,9.5l6.4-4.9c-0.1-0.2-0.2-0.5-0.2-0.8
		C30,44.2,30.1,44,30.1,43.9z"/>
	<path class="st0" d="M14.3,22.2c0,0.1,0,0.2,0,0.3l3.9,1.5v-8.7l-2.5,1.5L13.7,21C14.1,21.3,14.3,21.7,14.3,22.2z"/>
	<path class="st0" d="M13.8,23.5l2.1,5.5l2.4-0.3v-4L14.1,23C14,23.2,13.9,23.3,13.8,23.5z"/>
	<path class="st0" d="M15.4,29.1l-2-5.4c-0.2,0.1-0.4,0.1-0.5,0.1c-0.3,0-0.6-0.1-0.9-0.3l-6.4,6.2c0.2,0.2,0.3,0.4,0.3,0.7
		L15.4,29.1z"/>
	<path class="st0" d="M12.8,20.7c0.2,0,0.3,0,0.5,0.1l1.7-3.5L12,19L12.8,20.7C12.7,20.7,12.7,20.7,12.8,20.7z"/>
	<path class="st0" d="M4.1,40.9l5.2-1.4l-4.4-7.4c-0.2,0.1-0.4,0.2-0.7,0.2c0,0-0.1,0-0.1,0l-1,7.8C3.6,40.1,3.9,40.4,4.1,40.9z"/>
	<path class="st0" d="M18.8,32.2c1,0.1,1.9,0.4,2.6,1l4.4-4.6c-0.1-0.1-0.2-0.3-0.2-0.5l-6.7,0.9V32.2z"/>
	<path class="st0" d="M15.3,39.6c-0.3-0.3-0.5-0.7-0.7-1.1l-4.5,1.2l2,3.3L15.3,39.6z"/>
	<path class="st0" d="M2.7,30.7c0-0.1,0-0.3,0.1-0.4L0,28.9v5.4l2.9-2.8C2.8,31.2,2.7,31,2.7,30.7z"/>
	<path class="st0" d="M14.4,38.1c-0.2-0.5-0.3-1-0.3-1.5c0-0.2,0-0.4,0.1-0.6l-8.7-4.3c0,0.1-0.1,0.1-0.1,0.2l4.4,7.5L14.4,38.1z"/>
	<path class="st0" d="M3.7,42.7c-0.3,0.2-0.6,0.4-1,0.4c-0.6,0-1.2-0.4-1.4-0.9L0,42.5v4.8l5.2,3l3.4-3.6L3.7,42.7z"/>
	<path class="st0" d="M12.2,20.8l-0.6-1.6l-2.4,1.4l2.2,0.9C11.6,21.2,11.9,20.9,12.2,20.8z"/>
	<path class="st0" d="M1.1,41.5c0-0.8,0.7-1.5,1.5-1.6l1-7.8c-0.2-0.1-0.3-0.2-0.4-0.3L0,35v4.9V42l1.1-0.3
		C1.1,41.6,1.1,41.6,1.1,41.5z"/>
	<path class="st0" d="M19.9,53.8c0.1,0.2,0.2,0.5,0.2,0.7c0,0.8-0.6,1.4-1.3,1.5v1.7l6.2-3.6l-1.3-3.4L19.9,53.8z"/>
	<path class="st0" d="M17.2,32.4c0.3-0.1,0.7-0.2,1.1-0.2v-3.1l-2.2,0.3L17.2,32.4z"/>
	<path class="st0" d="M4.3,29.1c0.3,0,0.6,0.1,0.9,0.3l6.4-6.2c-0.2-0.3-0.3-0.6-0.3-0.9c0-0.1,0-0.2,0-0.3l-2.6-1l-8.6,5v2.4l3,1.5
		C3.2,29.4,3.7,29.1,4.3,29.1z"/>
	<path class="st0" d="M31.6,45.9c-0.4,0-0.7-0.1-1-0.4l-6.5,5l1.3,3.4L37,47.3l-4.1-2C32.6,45.6,32.1,45.9,31.6,45.9z"/>
	<path class="st0" d="M16.9,54.5c0-0.3,0.1-0.6,0.2-0.8L9,47l-3.3,3.5l12.6,7.3v-1.7C17.5,56,16.9,55.3,16.9,54.5z"/>
</g>
</svg>
