<?xml version="1.0" encoding="UTF-8" standalone="no"?>
<!-- Created with Inkscape (http://www.inkscape.org/) -->

<svg
   xmlns:dc="http://purl.org/dc/elements/1.1/"
   xmlns:cc="http://creativecommons.org/ns#"
   xmlns:rdf="http://www.w3.org/1999/02/22-rdf-syntax-ns#"
   xmlns:svg="http://www.w3.org/2000/svg"
   xmlns="http://www.w3.org/2000/svg"
   xmlns:sodipodi="http://sodipodi.sourceforge.net/DTD/sodipodi-0.dtd"
   xmlns:inkscape="http://www.inkscape.org/namespaces/inkscape"
   width="210mm"
   height="297mm"
   viewBox="0 0 210 297"
   version="1.1"
   id="svg8"
   sodipodi:docname="puzzzle2.svg"
   inkscape:version="0.92.3 (2405546, 2018-03-11)">
  <defs
     id="defs2">
    <clipPath
       id="clipPath26"
       clipPathUnits="userSpaceOnUse">
      <path
         inkscape:connector-curvature="0"
         id="path24"
         d="M 0,459 H 679 V 0 H 0 Z" />
    </clipPath>
  </defs>
  <sodipodi:namedview
     id="base"
     pagecolor="#ffffff"
     bordercolor="#666666"
     borderopacity="1.0"
     inkscape:pageopacity="0.0"
     inkscape:pageshadow="2"
     inkscape:zoom="1.4"
     inkscape:cx="682.21992"
     inkscape:cy="389.14568"
     inkscape:document-units="mm"
     inkscape:current-layer="g20"
     showgrid="false"
     inkscape:window-width="1920"
     inkscape:window-height="1001"
     inkscape:window-x="-9"
     inkscape:window-y="-9"
     inkscape:window-maximized="1" />
  <metadata
     id="metadata5">
    <rdf:RDF>
      <cc:Work
         rdf:about="">
        <dc:format>image/svg+xml</dc:format>
        <dc:type
           rdf:resource="http://purl.org/dc/dcmitype/StillImage" />
        <dc:title></dc:title>
      </cc:Work>
    </rdf:RDF>
  </metadata>
  <g
     inkscape:label="Layer 1"
     inkscape:groupmode="layer"
     id="layer1">
    <g
       id="g20"
       transform="matrix(0.35277777,0,0,-0.35277777,-13.085292,202.42592)">
      <g
         transform="translate(248.37151,175.64283)"
         id="g32">
        <path
           inkscape:connector-curvature="0"
           id="path34"
           style="fill:#6acf73;fill-opacity:1;fill-rule:nonzero;stroke:none"
           d="m 0,0 h 14.91 c 12.725,0 12.65,18.676 0,18.676 H 0 Z M 14.91,-9.111 H 0 V -24.624 H -9.94 V 28.09 c 8.282,0 16.567,0.075 24.85,0.075 25.755,0 25.83,-37.276 0,-37.276" />
      </g>
      <g
         transform="translate(335.57611,203.65743)"
         id="g36">
        <path
           inkscape:connector-curvature="0"
           id="path38"
           style="fill:#6acf73;fill-opacity:1;fill-rule:nonzero;stroke:none"
           d="m 0,0 v -30.197 c 0,-15.588 -9.563,-23.572 -22.818,-23.572 -12.651,0 -23.421,7.681 -23.421,23.572 V 0 h 9.864 v -30.197 c 0,-9.489 5.424,-14.533 13.632,-14.533 8.209,0 12.876,5.496 12.876,14.533 V 0 Z" />
      </g>
      <g
         transform="translate(340.54631,203.73263)"
         id="g40">
        <path
           inkscape:connector-curvature="0"
           id="path42"
           style="fill:#6acf73;fill-opacity:1;fill-rule:nonzero;stroke:none"
           d="M 0,0 H 40.514 V -4.669 L 13.18,-43.301 h 27.334 v -9.413 H -0.677 v 5.724 L 26.056,-9.338 H 0 Z" />
      </g>
      <g
         transform="translate(384.67671,203.73263)"
         id="g44">
        <path
           inkscape:connector-curvature="0"
           id="path46"
           style="fill:#6acf73;fill-opacity:1;fill-rule:nonzero;stroke:none"
           d="M 0,0 H 40.514 V -4.669 L 13.18,-43.301 h 27.334 v -9.413 H -0.677 v 5.724 L 26.056,-9.338 H 0 Z" />
      </g>
      <g
         transform="translate(428.80711,203.73263)"
         id="g48">
        <path
           inkscape:connector-curvature="0"
           id="path50"
           style="fill:#6acf73;fill-opacity:1;fill-rule:nonzero;stroke:none"
           d="M 0,0 H 40.511 V -4.669 L 13.177,-43.301 h 27.334 v -9.413 H -0.68 v 5.724 L 26.053,-9.338 H 0 Z" />
      </g>
      <g
         transform="translate(485.28661,203.73263)"
         id="g52">
        <path
           inkscape:connector-curvature="0"
           id="path54"
           style="fill:#6acf73;fill-opacity:1;fill-rule:nonzero;stroke:none"
           d="m 0,0 v -43.526 h 27.109 v -9.188 H -9.942 V 0 Z" />
      </g>
      <g
         transform="translate(558.70751,151.01873)"
         id="g56">
        <path
           inkscape:connector-curvature="0"
           id="path58"
           style="fill:#6acf73;fill-opacity:1;fill-rule:nonzero;stroke:none"
           d="M 0,0 H -39.458 V 52.714 H 0 V 43.075 H -29.594 V 30.951 H -1.053 V 21.688 H -29.594 V 9.79 H 0 Z" />
      </g>
      <g
         transform="matrix(1.1223851,0,0,1.6920606,240.74858,118.6694)"
         id="g60"
         style="fill:#6acf73;fill-opacity:1">
        <path
           inkscape:connector-curvature="0"
           id="path62"
           style="fill:#6acf73;fill-opacity:1;fill-rule:nonzero;stroke:none"
           d="m 0,0 v -4.172 h 3.025 c 0.729,0.014 1.263,0.226 1.601,0.639 0.339,0.406 0.508,0.889 0.508,1.448 0,0.569 -0.169,1.06 -0.508,1.467 C 4.288,-0.219 3.754,-0.014 3.025,0 Z M 0,5.842 V 1.859 h 2.834 c 0.716,0 1.244,0.202 1.58,0.602 C 4.758,2.831 4.93,3.296 4.93,3.855 4.93,4.416 4.758,4.89 4.414,5.279 4.078,5.642 3.55,5.829 2.834,5.842 Z m -1.958,1.86 H 3.057 C 4.328,7.688 5.284,7.348 5.924,6.676 6.568,5.999 6.891,5.103 6.891,3.989 6.903,3.418 6.775,2.874 6.509,2.354 6.373,2.108 6.178,1.874 5.924,1.652 5.668,1.418 5.355,1.206 4.983,1.016 V 0.978 C 5.69,0.781 6.223,0.386 6.584,-0.21 6.923,-0.825 7.092,-1.491 7.092,-2.214 7.08,-3.41 6.731,-4.357 6.045,-5.054 5.362,-5.781 4.513,-6.146 3.495,-6.146 h -5.453 z" />
      </g>
      <g
         transform="matrix(1.1223851,0,0,1.6920606,251.20842,131.70199)"
         id="g64"
         style="fill:#6acf73;fill-opacity:1">
        <path
           inkscape:connector-curvature="0"
           id="path66"
           style="fill:#6acf73;fill-opacity:1;fill-rule:nonzero;stroke:none"
           d="m 0,0 h 1.85 v -11.313 c 0,-0.449 0.232,-0.674 0.694,-0.674 h 0.641 v -1.862 H 2.36 c -0.674,0 -1.229,0.18 -1.667,0.54 C 0.231,-12.943 0,-12.328 0,-11.463 Z" />
      </g>
      <g
         transform="matrix(1.1223851,0,0,1.6920606,262.57156,116.5973)"
         id="g68"
         style="fill:#6acf73;fill-opacity:1">
        <path
           inkscape:connector-curvature="0"
           id="path70"
           style="fill:#6acf73;fill-opacity:1;fill-rule:nonzero;stroke:none"
           d="m 0,0 c 0,0.703 -0.03,1.219 -0.089,1.542 -0.06,0.312 -0.181,0.585 -0.364,0.82 -0.137,0.222 -0.338,0.397 -0.606,0.524 -0.253,0.134 -0.551,0.2 -0.889,0.2 -0.314,0 -0.604,-0.066 -0.871,-0.2 C -3.075,2.759 -3.282,2.584 -3.441,2.362 -3.601,2.127 -3.717,1.854 -3.789,1.542 -3.859,1.219 -3.896,0.71 -3.896,0.019 c 0,-0.688 0.037,-1.189 0.107,-1.507 0.072,-0.324 0.188,-0.611 0.348,-0.858 0.159,-0.19 0.366,-0.36 0.622,-0.505 0.267,-0.139 0.557,-0.21 0.871,-0.21 0.338,0 0.636,0.071 0.889,0.21 0.268,0.145 0.469,0.315 0.606,0.505 0.183,0.247 0.304,0.534 0.364,0.858 C -0.03,-1.17 0,-0.675 0,0 m -5.745,0.019 c 0,1.039 0.08,1.838 0.241,2.396 0.165,0.545 0.42,1.006 0.762,1.381 0.254,0.327 0.61,0.62 1.066,0.878 0.448,0.244 1.026,0.375 1.73,0.387 C -1.218,5.048 -0.63,4.918 -0.18,4.671 0.265,4.412 0.606,4.118 0.85,3.787 1.216,3.414 1.474,2.955 1.628,2.412 1.774,1.854 1.85,1.056 1.85,0.019 1.85,-1.021 1.774,-1.812 1.626,-2.356 1.474,-2.901 1.213,-3.373 0.848,-3.772 0.728,-3.917 0.584,-4.06 0.412,-4.199 0.258,-4.357 0.061,-4.495 -0.183,-4.607 c -0.45,-0.274 -1.038,-0.415 -1.765,-0.428 -0.703,0.013 -1.28,0.154 -1.728,0.428 -0.457,0.247 -0.812,0.525 -1.066,0.835 -0.342,0.399 -0.597,0.871 -0.762,1.416 -0.161,0.544 -0.241,1.335 -0.241,2.375" />
      </g>
      <g
         transform="matrix(1.1223851,0,0,1.6920606,274.77581,110.95598)"
         id="g72"
         style="fill:#6acf73;fill-opacity:1">
        <path
           inkscape:connector-curvature="0"
           id="path74"
           style="fill:#6acf73;fill-opacity:1;fill-rule:nonzero;stroke:none"
           d="m 0,0 c -0.403,-0.492 -0.876,-0.893 -1.42,-1.201 -0.544,-0.321 -1.175,-0.487 -1.891,-0.5 -1.087,0 -2.041,0.395 -2.863,1.187 -0.848,0.79 -1.286,2.075 -1.31,3.848 0.024,1.791 0.462,3.089 1.313,3.893 0.821,0.792 1.776,1.181 2.864,1.168 0.714,-0.013 1.345,-0.17 1.889,-0.473 C -0.875,7.611 -0.402,7.198 0,6.68 L -1.366,5.381 C -1.833,6.05 -2.458,6.395 -3.239,6.42 -4.813,6.445 -5.612,5.416 -5.635,3.334 -5.612,1.263 -4.813,0.241 -3.24,0.273 c 0.782,0.013 1.405,0.355 1.872,1.03 z" />
      </g>
      <g
         transform="matrix(1.1223851,0,0,1.6920606,276.51529,131.70199)"
         id="g76"
         style="fill:#6acf73;fill-opacity:1">
        <path
           inkscape:connector-curvature="0"
           id="path78"
           style="fill:#6acf73;fill-opacity:1;fill-rule:nonzero;stroke:none"
           d="m 0,0 h 1.849 v -8.614 h 0.038 l 3.542,4.625 H 7.648 L 4.47,-7.837 8.083,-13.849 H 5.757 l -2.452,4.608 -1.456,-1.768 v -2.84 H 0 Z" />
      </g>
      <g
         transform="matrix(1.1223851,0,0,1.6920606,295.0544,110.95598)"
         id="g80"
         style="fill:#6acf73;fill-opacity:1">
        <path
           inkscape:connector-curvature="0"
           id="path82"
           style="fill:#6acf73;fill-opacity:1;fill-rule:nonzero;stroke:none"
           d="m 0,0 c -0.403,-0.492 -0.875,-0.893 -1.419,-1.201 -0.546,-0.321 -1.176,-0.487 -1.892,-0.5 -1.088,0 -2.042,0.395 -2.862,1.187 -0.85,0.79 -1.288,2.075 -1.311,3.848 0.023,1.791 0.461,3.089 1.312,3.893 0.822,0.792 1.776,1.181 2.864,1.168 0.716,-0.013 1.346,-0.17 1.889,-0.473 C -0.874,7.611 -0.401,7.198 0,6.68 L -1.366,5.381 C -1.833,6.05 -2.459,6.395 -3.238,6.42 -4.812,6.445 -5.612,5.416 -5.635,3.334 -5.612,1.263 -4.812,0.241 -3.24,0.273 c 0.781,0.013 1.406,0.355 1.873,1.03 z" />
      </g>
      <g
         transform="matrix(1.1223851,0,0,1.6920606,296.79275,131.70199)"
         id="g84"
         style="fill:#6acf73;fill-opacity:1">
        <path
           inkscape:connector-curvature="0"
           id="path86"
           style="fill:#6acf73;fill-opacity:1;fill-rule:nonzero;stroke:none"
           d="m 0,0 h 1.848 v -5.034 h 0.035 c 0.61,0.778 1.408,1.168 2.394,1.168 0.763,0 1.461,-0.287 2.093,-0.865 0.627,-0.581 0.955,-1.437 0.984,-2.563 v -6.555 H 5.506 v 5.878 c 0,0.691 -0.172,1.217 -0.514,1.579 -0.339,0.368 -0.774,0.551 -1.306,0.551 -0.532,0 -0.97,-0.183 -1.314,-0.551 C 2.023,-6.754 1.848,-7.28 1.848,-7.971 v -5.878 H 0 Z" />
      </g>
      <g
         transform="matrix(1.1223851,0,0,1.6920606,313.53367,115.34146)"
         id="g88"
         style="fill:#6acf73;fill-opacity:1">
        <path
           inkscape:connector-curvature="0"
           id="path90"
           style="fill:#6acf73;fill-opacity:1;fill-rule:nonzero;stroke:none"
           d="m 0,0 h -2.222 c -1.08,-0.023 -1.612,-0.422 -1.601,-1.187 0,-0.336 0.139,-0.621 0.419,-0.856 0.266,-0.259 0.707,-0.39 1.324,-0.39 0.774,-0.011 1.325,0.085 1.644,0.295 C -0.146,-1.929 0,-1.453 0,-0.712 Z m 0,-3.307 h -0.035 c -0.172,-0.335 -0.438,-0.582 -0.801,-0.739 -0.354,-0.165 -0.843,-0.247 -1.472,-0.247 -1.029,0.013 -1.821,0.304 -2.375,0.873 -0.586,0.558 -0.878,1.27 -0.878,2.138 0,0.828 0.252,1.516 0.763,2.06 0.507,0.558 1.252,0.842 2.235,0.856 H 0 v 1.039 c 0.011,0.871 -0.618,1.295 -1.892,1.269 -0.462,0 -0.824,-0.05 -1.09,-0.153 -0.28,-0.12 -0.497,-0.323 -0.656,-0.61 l -1.456,1.189 c 0.704,0.983 1.741,1.46 3.111,1.435 C -0.822,5.816 0.102,5.581 0.792,5.101 1.485,4.606 1.837,3.759 1.848,2.555 V -4.18 H 0 Z" />
      </g>
      <path
         inkscape:connector-curvature="0"
         id="path92"
         style="fill:#6acf73;fill-opacity:1;fill-rule:nonzero;stroke:none;stroke-width:1.3780942"
         d="m 318.6962,124.95219 h 2.07417 v -16.68202 h -2.07417 z m 0,6.74964 h 2.07417 V 128.36 h -2.07417 z" />
      <g
         transform="matrix(1.1223851,0,0,1.6920606,323.68285,124.95185)"
         id="g94"
         style="fill:#6acf73;fill-opacity:1">
        <path
           inkscape:connector-curvature="0"
           id="path96"
           style="fill:#6acf73;fill-opacity:1;fill-rule:nonzero;stroke:none"
           d="m 0,0 h 1.848 v -1.045 h 0.035 c 0.61,0.778 1.408,1.168 2.394,1.168 0.763,0 1.461,-0.287 2.093,-0.865 0.626,-0.581 0.953,-1.437 0.983,-2.563 V -9.859 H 5.504 v 5.878 c 0,0.69 -0.171,1.216 -0.513,1.579 -0.338,0.367 -0.773,0.55 -1.305,0.55 -0.532,0 -0.97,-0.183 -1.314,-0.55 C 2.023,-2.765 1.848,-3.291 1.848,-3.981 V -9.859 H 0 Z" />
      </g>
      <g
         transform="matrix(1.1223851,0,0,1.6920606,350.02051,114.81437)"
         id="g98"
         style="fill:#6acf73;fill-opacity:1">
        <path
           inkscape:connector-curvature="0"
           id="path100"
           style="fill:#6acf73;fill-opacity:1;fill-rule:nonzero;stroke:none"
           d="m 0,0 c -0.282,-1.281 -0.825,-2.269 -1.623,-2.958 -0.824,-0.682 -1.796,-1.023 -2.922,-1.023 -1.016,0.024 -1.865,0.29 -2.544,0.797 -0.694,0.487 -1.196,1.051 -1.51,1.691 -0.094,0.209 -0.18,0.408 -0.255,0.598 -0.073,0.197 -0.132,0.444 -0.178,0.742 -0.088,0.556 -0.134,1.627 -0.134,3.211 0,1.606 0.046,2.683 0.134,3.228 0.094,0.544 0.24,0.984 0.435,1.319 0.312,0.64 0.814,1.209 1.508,1.71 0.679,0.507 1.528,0.767 2.547,0.78 1.249,-0.013 2.264,-0.407 3.051,-1.187 C -0.704,8.124 -0.207,7.154 0,5.998 H -2.079 C -2.238,6.555 -2.53,7.032 -2.95,7.426 -3.387,7.799 -3.922,7.992 -4.551,8.006 -5.013,7.992 -5.408,7.896 -5.741,7.71 -6.079,7.52 -6.351,7.283 -6.558,6.997 -6.812,6.699 -6.982,6.314 -7.065,5.846 -7.159,5.351 -7.208,4.421 -7.208,3.058 c 0,-1.366 0.049,-2.289 0.143,-2.77 0.083,-0.484 0.253,-0.874 0.507,-1.172 0.207,-0.286 0.481,-0.518 0.817,-0.695 0.333,-0.21 0.731,-0.315 1.193,-0.315 1.101,0 1.926,0.631 2.471,1.894 z" />
      </g>
      <g
         transform="matrix(1.1223851,0,0,1.6920606,350.26227,124.95185)"
         id="g102"
         style="fill:#6acf73;fill-opacity:1">
        <path
           inkscape:connector-curvature="0"
           id="path104"
           style="fill:#6acf73;fill-opacity:1;fill-rule:nonzero;stroke:none"
           d="M 0,0 H 1.961 L 4.142,-6.907 H 4.177 L 6.348,0 H 8.317 L 4.354,-11.901 C 4.099,-12.643 3.748,-13.154 3.299,-13.44 2.845,-13.712 2.329,-13.849 1.757,-13.849 H 1.144 v 1.862 h 0.54 c 0.242,0 0.467,0.07 0.674,0.21 0.207,0.144 0.352,0.361 0.435,0.647 l 0.506,1.654 z" />
      </g>
      <g
         transform="matrix(1.1223851,0,0,1.6920606,365.21772,121.81883)"
         id="g106"
         style="fill:#6acf73;fill-opacity:1">
        <path
           inkscape:connector-curvature="0"
           id="path108"
           style="fill:#6acf73;fill-opacity:1;fill-rule:nonzero;stroke:none"
           d="M 0,0 C -0.414,0 -0.742,-0.091 -0.983,-0.276 -1.239,-0.46 -1.427,-0.701 -1.545,-1 -1.658,-1.299 -1.73,-1.622 -1.765,-1.972 -1.8,-2.322 -1.819,-2.688 -1.819,-3.067 c 0,-0.35 0.019,-0.707 0.054,-1.069 0.035,-0.369 0.107,-0.702 0.22,-1 0.118,-0.299 0.306,-0.54 0.562,-0.725 0.241,-0.191 0.569,-0.285 0.983,-0.285 0.438,0 0.784,0.088 1.04,0.266 0.255,0.185 0.435,0.419 0.54,0.706 0.118,0.298 0.198,0.634 0.241,1.01 0.011,0.355 0.016,0.721 0.016,1.097 0,0.391 -0.005,0.777 -0.016,1.152 C 1.778,-1.565 1.698,-1.241 1.58,-0.942 1.475,-0.645 1.295,-0.409 1.04,-0.238 0.784,-0.079 0.438,0 0,0 m -3.667,5.841 h 1.848 V 0.807 c 0.336,0.348 0.707,0.633 1.11,0.855 0.37,0.208 0.795,0.313 1.268,0.313 C 1.687,1.942 2.512,1.513 3.033,0.683 3.285,0.374 3.46,-0.034 3.554,-0.542 c 0.089,-0.5 0.132,-1.342 0.132,-2.525 0,-1.166 -0.043,-2.002 -0.132,-2.51 C 3.46,-6.108 3.285,-6.529 3.03,-6.84 2.778,-7.218 2.442,-7.523 2.028,-7.75 1.62,-7.985 1.131,-8.108 0.556,-8.121 c -0.967,0.024 -1.76,0.406 -2.375,1.142 v -1.029 h -1.848 z" />
      </g>
      <g
         transform="matrix(1.1223851,0,0,1.6920606,377.96284,118.10594)"
         id="g110"
         style="fill:#6acf73;fill-opacity:1">
        <path
           inkscape:connector-curvature="0"
           id="path112"
           style="fill:#6acf73;fill-opacity:1;fill-rule:nonzero;stroke:none"
           d="M 0,0 C -0.021,0.769 -0.215,1.352 -0.578,1.746 -0.932,2.121 -1.389,2.309 -1.948,2.309 -2.504,2.309 -2.96,2.121 -3.315,1.746 -3.667,1.352 -3.858,0.769 -3.896,0 Z m -3.896,-1.634 c 0,-0.792 0.216,-1.393 0.64,-1.804 0.398,-0.419 0.919,-0.628 1.564,-0.628 0.752,0 1.423,0.32 2.014,0.961 l 1.341,-1.227 c -0.94,-1.076 -2.044,-1.607 -3.318,-1.595 -0.483,0 -0.956,0.075 -1.418,0.229 -0.231,0.081 -0.454,0.192 -0.675,0.332 -0.231,0.119 -0.445,0.268 -0.647,0.446 -0.39,0.366 -0.707,0.879 -0.948,1.537 -0.266,0.635 -0.401,1.458 -0.401,2.471 0,0.975 0.116,1.785 0.347,2.433 0.231,0.658 0.526,1.176 0.886,1.556 0.368,0.386 0.78,0.665 1.234,0.837 0.448,0.169 0.891,0.255 1.329,0.255 C -0.895,4.156 -0.005,3.786 0.723,3.057 1.461,2.317 1.837,1.298 1.851,0 v -1.634 z" />
      </g>
      <g
         transform="matrix(1.1223851,0,0,1.6920606,382.56093,124.95185)"
         id="g114"
         style="fill:#6acf73;fill-opacity:1">
        <path
           inkscape:connector-curvature="0"
           id="path116"
           style="fill:#6acf73;fill-opacity:1;fill-rule:nonzero;stroke:none"
           d="m 0,0 h 1.849 v -1.045 h 0.04 C 2.496,-0.267 3.296,0.123 4.285,0.123 5.024,0.11 5.668,-0.142 6.219,-0.634 L 4.868,-2.346 C 4.479,-2.017 4.073,-1.852 3.651,-1.852 3.178,-1.852 2.772,-2.015 2.434,-2.346 2.055,-2.669 1.862,-3.191 1.849,-3.914 V -9.859 H 0 Z" />
      </g>
      <g
         transform="matrix(1.1223851,0,0,1.6920606,391.05828,113.36514)"
         id="g118"
         style="fill:#6acf73;fill-opacity:1">
        <path
           inkscape:connector-curvature="0"
           id="path120"
           style="fill:#6acf73;fill-opacity:1;fill-rule:nonzero;stroke:none"
           d="m 0,0 c 0.752,-0.844 1.725,-1.265 2.917,-1.265 0.535,0 0.97,0.113 1.309,0.332 C 4.564,-0.71 4.733,-0.4 4.733,0 4.733,0.354 4.631,0.602 4.43,0.74 4.223,0.886 3.949,0.964 3.605,0.978 L 1.969,1.129 C 1.192,1.206 0.561,1.484 0.075,1.966 c -0.5,0.468 -0.755,1.123 -0.765,1.966 0.01,1.013 0.346,1.772 1.004,2.279 0.64,0.508 1.451,0.76 2.431,0.76 0.427,0 0.809,-0.029 1.148,-0.086 C 4.229,6.823 4.545,6.734 4.843,6.619 5.41,6.373 5.921,6.041 6.369,5.622 L 5.222,4.19 C 4.868,4.465 4.492,4.691 4.094,4.87 3.702,5.031 3.25,5.11 2.743,5.11 2.16,5.11 1.754,4.999 1.523,4.777 1.281,4.556 1.158,4.271 1.158,3.922 1.147,3.699 1.238,3.506 1.435,3.342 1.612,3.157 1.926,3.041 2.377,2.989 L 3.906,2.866 C 4.865,2.791 5.561,2.479 5.985,1.934 6.383,1.402 6.582,0.727 6.582,-0.092 6.571,-1.048 6.206,-1.787 5.491,-2.308 4.779,-2.84 3.871,-3.112 2.764,-3.125 c -1.502,0 -2.856,0.589 -4.056,1.766 z" />
      </g>
      <g
         transform="matrix(1.1223851,0,0,1.6920606,406.79748,118.10594)"
         id="g122"
         style="fill:#6acf73;fill-opacity:1">
        <path
           inkscape:connector-curvature="0"
           id="path124"
           style="fill:#6acf73;fill-opacity:1;fill-rule:nonzero;stroke:none"
           d="m 0,0 c -0.024,0.769 -0.217,1.352 -0.578,1.746 -0.357,0.375 -0.814,0.563 -1.37,0.563 -0.558,0 -1.015,-0.188 -1.37,-0.563 C -3.667,1.352 -3.86,0.769 -3.895,0 Z m -3.895,-1.634 c 0,-0.792 0.212,-1.393 0.639,-1.804 0.395,-0.419 0.916,-0.628 1.564,-0.628 0.749,0 1.423,0.32 2.014,0.961 l 1.341,-1.227 c -0.94,-1.076 -2.047,-1.607 -3.318,-1.595 -0.486,0 -0.959,0.075 -1.418,0.229 -0.231,0.081 -0.457,0.192 -0.675,0.332 -0.231,0.119 -0.448,0.268 -0.647,0.446 -0.392,0.366 -0.707,0.879 -0.951,1.537 -0.266,0.635 -0.398,1.458 -0.398,2.471 0,0.975 0.116,1.785 0.344,2.433 0.232,0.658 0.527,1.176 0.89,1.556 0.365,0.386 0.776,0.665 1.233,0.837 0.448,0.169 0.892,0.255 1.329,0.255 C -0.895,4.156 -0.005,3.786 0.723,3.057 1.461,2.317 1.837,1.298 1.848,0 v -1.634 z" />
      </g>
      <g
         transform="matrix(1.1223851,0,0,1.6920606,419.00342,110.95598)"
         id="g126"
         style="fill:#6acf73;fill-opacity:1">
        <path
           inkscape:connector-curvature="0"
           id="path128"
           style="fill:#6acf73;fill-opacity:1;fill-rule:nonzero;stroke:none"
           d="m 0,0 c -0.403,-0.492 -0.876,-0.893 -1.421,-1.201 -0.546,-0.321 -1.174,-0.487 -1.892,-0.5 -1.087,0 -2.041,0.395 -2.86,1.187 -0.852,0.79 -1.29,2.075 -1.312,3.848 0.022,1.791 0.46,3.089 1.312,3.893 0.821,0.792 1.775,1.181 2.863,1.168 0.717,-0.013 1.346,-0.17 1.889,-0.473 C -0.876,7.611 -0.403,7.198 0,6.68 L -1.368,5.381 C -1.835,6.05 -2.461,6.395 -3.24,6.42 -4.814,6.445 -5.612,5.416 -5.636,3.334 -5.612,1.263 -4.814,0.241 -3.24,0.273 c 0.779,0.013 1.405,0.355 1.872,1.03 z" />
      </g>
      <g
         transform="matrix(1.1223851,0,0,1.6920606,420.74009,124.95185)"
         id="g130"
         style="fill:#6acf73;fill-opacity:1">
        <path
           inkscape:connector-curvature="0"
           id="path132"
           style="fill:#6acf73;fill-opacity:1;fill-rule:nonzero;stroke:none"
           d="m 0,0 h 1.848 v -5.878 c 0,-0.665 0.175,-1.184 0.524,-1.559 0.344,-0.375 0.782,-0.561 1.314,-0.561 0.534,0 0.969,0.186 1.305,0.561 0.344,0.375 0.516,0.894 0.516,1.559 V 0 H 7.355 V -9.859 H 5.507 v 1.055 H 5.472 C 4.862,-9.583 4.067,-9.973 3.086,-9.973 2.324,-9.96 1.636,-9.663 1.021,-9.082 0.352,-8.514 0.013,-7.673 0,-6.561 Z" />
      </g>
      <g
         transform="matrix(1.1223851,0,0,1.6920606,432.05002,124.95185)"
         id="g134"
         style="fill:#6acf73;fill-opacity:1">
        <path
           inkscape:connector-curvature="0"
           id="path136"
           style="fill:#6acf73;fill-opacity:1;fill-rule:nonzero;stroke:none"
           d="M 0,0 H 1.851 V -1.045 H 1.889 C 2.499,-0.267 3.296,0.123 4.285,0.123 5.026,0.11 5.671,-0.142 6.222,-0.634 L 4.871,-2.346 C 4.479,-2.017 4.073,-1.852 3.654,-1.852 3.181,-1.852 2.775,-2.015 2.437,-2.346 2.058,-2.669 1.862,-3.191 1.851,-3.914 V -9.859 H 0 Z" />
      </g>
      <path
         inkscape:connector-curvature="0"
         id="path138"
         style="fill:#6acf73;fill-opacity:1;fill-rule:nonzero;stroke:none;stroke-width:1.3780942"
         d="m 440.30887,124.95219 h 2.07417 v -16.68202 h -2.07417 z m 0,6.74964 h 2.07417 V 128.36 h -2.07417 z" />
      <g
         transform="matrix(1.1223851,0,0,1.6920606,445.41942,130.02973)"
         id="g140"
         style="fill:#6acf73;fill-opacity:1">
        <path
           inkscape:connector-curvature="0"
           id="path142"
           style="fill:#6acf73;fill-opacity:1;fill-rule:nonzero;stroke:none"
           d="M 0,0 H 1.849 V -3.001 H 3.197 V -4.52 H 1.849 v -5.749 c -0.011,-0.499 0.206,-0.744 0.658,-0.73 h 0.69 V -12.86 H 2.232 c -0.649,0 -1.181,0.214 -1.595,0.645 C 0.212,-11.804 0,-11.208 0,-10.431 v 5.911 h -0.929 v 1.519 H 0 Z" />
      </g>
      <g
         transform="matrix(1.1223851,0,0,1.6920606,449.65575,124.95185)"
         id="g144"
         style="fill:#6acf73;fill-opacity:1">
        <path
           inkscape:connector-curvature="0"
           id="path146"
           style="fill:#6acf73;fill-opacity:1;fill-rule:nonzero;stroke:none"
           d="M 0,0 H 1.958 L 4.14,-6.907 H 4.175 L 6.348,0 H 8.317 L 4.353,-11.901 C 4.1,-12.643 3.748,-13.154 3.296,-13.44 2.843,-13.712 2.33,-13.849 1.754,-13.849 H 1.142 v 1.862 h 0.543 c 0.241,0 0.467,0.07 0.674,0.21 0.207,0.144 0.352,0.361 0.433,0.647 l 0.504,1.654 z" />
      </g>
      <g
         transform="matrix(1.1223851,0,0,1.6920606,465.87231,122.38229)"
         id="g148"
         style="fill:#6acf73;fill-opacity:1">
        <path
           inkscape:connector-curvature="0"
           id="path150"
           style="fill:#6acf73;fill-opacity:1;fill-rule:nonzero;stroke:none"
           d="M 0,0 H -0.935 V 1.519 H 0 V 2.82 C 0,3.756 0.242,4.446 0.728,4.89 1.201,5.302 1.794,5.508 2.509,5.508 H 3.707 V 3.647 H 2.648 C 2.09,3.666 1.824,3.392 1.848,2.826 V 1.519 H 3.707 V 0 H 1.848 V -8.341 H 0 Z" />
      </g>
      <g
         transform="matrix(1.1223851,0,0,1.6920606,477.32681,116.5973)"
         id="g152"
         style="fill:#6acf73;fill-opacity:1">
        <path
           inkscape:connector-curvature="0"
           id="path154"
           style="fill:#6acf73;fill-opacity:1;fill-rule:nonzero;stroke:none"
           d="m 0,0 c 0,0.703 -0.03,1.219 -0.089,1.542 -0.061,0.312 -0.182,0.585 -0.365,0.82 -0.137,0.222 -0.338,0.397 -0.605,0.524 -0.254,0.134 -0.553,0.2 -0.889,0.2 -0.314,0 -0.604,-0.066 -0.873,-0.2 C -3.076,2.759 -3.283,2.584 -3.441,2.362 -3.603,2.127 -3.718,1.854 -3.791,1.542 -3.86,1.219 -3.896,0.71 -3.896,0.019 c 0,-0.688 0.036,-1.189 0.105,-1.507 0.073,-0.324 0.188,-0.611 0.35,-0.858 0.158,-0.19 0.365,-0.36 0.62,-0.505 0.269,-0.139 0.559,-0.21 0.873,-0.21 0.336,0 0.635,0.071 0.889,0.21 0.267,0.145 0.468,0.315 0.605,0.505 0.183,0.247 0.304,0.534 0.365,0.858 C -0.03,-1.17 0,-0.675 0,0 m -5.747,0.019 c 0,1.039 0.081,1.838 0.243,2.396 0.163,0.545 0.419,1.006 0.762,1.381 0.253,0.327 0.61,0.62 1.064,0.878 0.449,0.244 1.027,0.375 1.73,0.387 C -1.22,5.048 -0.631,4.918 -0.18,4.671 0.263,4.412 0.604,4.118 0.849,3.787 1.214,3.414 1.472,2.955 1.628,2.412 1.773,1.854 1.848,1.056 1.848,0.019 1.848,-1.021 1.773,-1.812 1.625,-2.356 1.472,-2.901 1.211,-3.373 0.846,-3.772 0.728,-3.917 0.583,-4.06 0.411,-4.199 0.258,-4.357 0.059,-4.495 -0.183,-4.607 c -0.451,-0.274 -1.039,-0.415 -1.765,-0.428 -0.703,0.013 -1.281,0.154 -1.73,0.428 -0.456,0.247 -0.811,0.525 -1.064,0.835 -0.343,0.399 -0.599,0.871 -0.762,1.416 -0.162,0.544 -0.243,1.335 -0.243,2.375" />
      </g>
      <g
         transform="matrix(1.1223851,0,0,1.6920606,481.92219,124.95185)"
         id="g156"
         style="fill:#6acf73;fill-opacity:1">
        <path
           inkscape:connector-curvature="0"
           id="path158"
           style="fill:#6acf73;fill-opacity:1;fill-rule:nonzero;stroke:none"
           d="M 0,0 H 1.848 V -1.045 H 1.889 C 2.498,-0.267 3.296,0.123 4.285,0.123 5.023,0.11 5.668,-0.142 6.219,-0.634 L 4.871,-2.346 C 4.478,-2.017 4.073,-1.852 3.653,-1.852 3.178,-1.852 2.772,-2.015 2.437,-2.346 2.058,-2.669 1.862,-3.191 1.848,-3.914 V -9.859 H 0 Z" />
      </g>
      <g
         transform="matrix(1.1223851,0,0,1.6920606,495.35186,131.70199)"
         id="g160"
         style="fill:#6acf73;fill-opacity:1">
        <path
           inkscape:connector-curvature="0"
           id="path162"
           style="fill:#6acf73;fill-opacity:1;fill-rule:nonzero;stroke:none"
           d="M 0,0 H 8.264 V -1.975 H 1.958 V -5.937 H 7.342 V -7.796 H 1.958 v -4.078 h 6.306 v -1.975 H 0 Z" />
      </g>
      <g
         transform="matrix(1.1223851,0,0,1.6920606,506.87932,124.95185)"
         id="g164"
         style="fill:#6acf73;fill-opacity:1">
        <path
           inkscape:connector-curvature="0"
           id="path166"
           style="fill:#6acf73;fill-opacity:1;fill-rule:nonzero;stroke:none"
           d="m 0,0 h 1.848 v -1.045 h 0.035 c 0.61,0.778 1.408,1.168 2.394,1.168 0.763,0 1.461,-0.287 2.093,-0.865 0.628,-0.581 0.956,-1.437 0.985,-2.563 V -9.859 H 5.507 v 5.878 c 0,0.69 -0.172,1.216 -0.516,1.579 -0.338,0.367 -0.774,0.55 -1.305,0.55 -0.532,0 -0.97,-0.183 -1.314,-0.55 C 2.023,-2.765 1.848,-3.291 1.848,-3.981 V -9.859 H 0 Z" />
      </g>
      <g
         transform="matrix(1.1223851,0,0,1.6920606,518.31306,130.02973)"
         id="g168"
         style="fill:#6acf73;fill-opacity:1">
        <path
           inkscape:connector-curvature="0"
           id="path170"
           style="fill:#6acf73;fill-opacity:1;fill-rule:nonzero;stroke:none"
           d="M 0,0 H 1.848 V -3.001 H 3.199 V -4.52 H 1.848 v -5.749 c -0.011,-0.499 0.207,-0.744 0.658,-0.73 H 3.199 V -12.86 H 2.232 c -0.65,0 -1.182,0.214 -1.593,0.645 C 0.212,-11.804 0,-11.208 0,-10.431 v 5.911 h -0.927 v 1.519 H 0 Z" />
      </g>
      <g
         transform="matrix(1.1223851,0,0,1.6920606,529.97262,118.10594)"
         id="g172"
         style="fill:#6acf73;fill-opacity:1">
        <path
           inkscape:connector-curvature="0"
           id="path174"
           style="fill:#6acf73;fill-opacity:1;fill-rule:nonzero;stroke:none"
           d="m 0,0 c -0.024,0.769 -0.215,1.352 -0.578,1.746 -0.354,0.375 -0.811,0.563 -1.37,0.563 -0.555,0 -1.012,-0.188 -1.37,-0.563 C -3.667,1.352 -3.86,0.769 -3.895,0 Z m -3.895,-1.634 c 0,-0.792 0.212,-1.393 0.639,-1.804 0.398,-0.419 0.919,-0.628 1.564,-0.628 0.752,0 1.423,0.32 2.015,0.961 l 1.34,-1.227 c -0.94,-1.076 -2.044,-1.607 -3.318,-1.595 -0.483,0 -0.956,0.075 -1.418,0.229 -0.231,0.081 -0.457,0.192 -0.675,0.332 -0.231,0.119 -0.445,0.268 -0.647,0.446 -0.39,0.366 -0.707,0.879 -0.948,1.537 -0.269,0.635 -0.401,1.458 -0.401,2.471 0,0.975 0.116,1.785 0.347,2.433 0.231,0.658 0.526,1.176 0.887,1.556 0.365,0.386 0.776,0.665 1.233,0.837 0.448,0.169 0.892,0.255 1.329,0.255 C -0.895,4.156 -0.005,3.786 0.723,3.057 1.461,2.317 1.837,1.298 1.848,0 v -1.634 z" />
      </g>
      <g
         transform="matrix(1.1223851,0,0,1.6920606,534.57126,124.95185)"
         id="g176"
         style="fill:#6acf73;fill-opacity:1">
        <path
           inkscape:connector-curvature="0"
           id="path178"
           style="fill:#6acf73;fill-opacity:1;fill-rule:nonzero;stroke:none"
           d="m 0,0 h 1.848 v -1.045 h 0.038 c 0.61,0.778 1.41,1.168 2.399,1.168 C 5.023,0.11 5.668,-0.142 6.219,-0.634 L 4.868,-2.346 c -0.39,0.329 -0.796,0.494 -1.217,0.494 -0.473,0 -0.879,-0.163 -1.217,-0.494 C 2.055,-2.669 1.859,-3.191 1.848,-3.914 V -9.859 H 0 Z" />
      </g>
      <g
         transform="matrix(1.1223851,0,0,1.6920606,546.88236,111.41858)"
         id="g180"
         style="fill:#6acf73;fill-opacity:1">
        <path
           inkscape:connector-curvature="0"
           id="path182"
           style="fill:#6acf73;fill-opacity:1;fill-rule:nonzero;stroke:none"
           d="m 0,0 c 0.437,0 0.784,0.089 1.04,0.267 0.255,0.184 0.435,0.419 0.54,0.706 0.118,0.298 0.198,0.629 0.241,0.991 0.011,0.354 0.016,0.72 0.016,1.097 0,0.391 -0.005,0.776 -0.016,1.152 C 1.778,4.587 1.698,4.918 1.58,5.204 1.475,5.502 1.295,5.737 1.04,5.908 0.784,6.067 0.437,6.146 0,6.146 -0.414,6.146 -0.742,6.056 -0.983,5.87 -1.239,5.687 -1.427,5.445 -1.545,5.146 -1.658,4.848 -1.73,4.524 -1.765,4.175 -1.8,3.806 -1.819,3.434 -1.819,3.061 c 0,-0.351 0.019,-0.701 0.054,-1.05 0.035,-0.369 0.107,-0.702 0.22,-1 0.118,-0.299 0.306,-0.54 0.562,-0.726 C -0.742,0.095 -0.414,0 0,0 m -3.667,7.998 h 1.848 V 6.972 C -1.204,7.708 -0.411,8.089 0.559,8.121 1.687,8.089 2.512,7.659 3.033,6.829 3.285,6.521 3.46,6.112 3.554,5.604 3.643,5.104 3.686,4.256 3.686,3.061 3.686,1.895 3.643,1.059 3.554,0.551 3.46,0.046 3.285,-0.37 3.03,-0.693 2.778,-1.071 2.442,-1.377 2.028,-1.604 1.62,-1.839 1.131,-1.962 0.556,-1.975 c -0.473,0 -0.895,0.111 -1.268,0.331 -0.4,0.202 -0.771,0.478 -1.107,0.832 v -5.039 h -1.848 z" />
      </g>
      <g
         transform="matrix(1.1223851,0,0,1.6920606,553.6967,124.95185)"
         id="g184"
         style="fill:#6acf73;fill-opacity:1">
        <path
           inkscape:connector-curvature="0"
           id="path186"
           style="fill:#6acf73;fill-opacity:1;fill-rule:nonzero;stroke:none"
           d="m 0,0 h 1.848 v -1.045 h 0.038 c 0.61,0.778 1.41,1.168 2.399,1.168 C 5.023,0.11 5.668,-0.142 6.219,-0.634 L 4.868,-2.346 c -0.39,0.329 -0.795,0.494 -1.217,0.494 -0.473,0 -0.879,-0.163 -1.217,-0.494 C 2.055,-2.669 1.859,-3.191 1.848,-3.914 V -9.859 H 0 Z" />
      </g>
      <path
         inkscape:connector-curvature="0"
         id="path188"
         style="fill:#6acf73;fill-opacity:1;fill-rule:nonzero;stroke:none;stroke-width:1.3780942"
         d="m 561.95184,124.95219 h 2.07416 v -16.68202 h -2.07416 z m 0,6.74964 H 564.026 V 128.36 h -2.07416 z" />
      <g
         transform="matrix(1.1223851,0,0,1.6920606,567.24096,113.36514)"
         id="g190"
         style="fill:#6acf73;fill-opacity:1">
        <path
           inkscape:connector-curvature="0"
           id="path192"
           style="fill:#6acf73;fill-opacity:1;fill-rule:nonzero;stroke:none"
           d="m 0,0 c 0.755,-0.844 1.728,-1.265 2.92,-1.265 0.532,0 0.97,0.113 1.306,0.332 C 4.564,-0.71 4.733,-0.4 4.733,0 4.733,0.354 4.634,0.602 4.433,0.74 4.223,0.886 3.949,0.964 3.605,0.978 L 1.969,1.129 C 1.193,1.206 0.562,1.484 0.075,1.966 -0.422,2.434 -0.677,3.089 -0.69,3.932 c 0.013,1.013 0.346,1.772 1.004,2.279 0.64,0.508 1.451,0.76 2.434,0.76 0.425,0 0.806,-0.029 1.145,-0.086 C 4.231,6.823 4.548,6.734 4.844,6.619 5.411,6.373 5.921,6.041 6.37,5.622 L 5.223,4.19 C 4.868,4.465 4.492,4.691 4.094,4.87 3.702,5.031 3.253,5.11 2.743,5.11 2.16,5.11 1.754,4.999 1.523,4.777 1.281,4.556 1.161,4.271 1.161,3.922 1.147,3.699 1.238,3.506 1.435,3.342 1.612,3.157 1.926,3.041 2.377,2.989 L 3.906,2.866 C 4.868,2.791 5.561,2.479 5.988,1.934 6.386,1.402 6.582,0.727 6.582,-0.092 6.571,-1.048 6.208,-1.787 5.491,-2.308 4.782,-2.84 3.871,-3.112 2.767,-3.125 c -1.504,0 -2.855,0.589 -4.057,1.766 z" />
      </g>
      <g
         transform="matrix(1.1223851,0,0,1.6920606,582.98062,118.10594)"
         id="g194"
         style="fill:#6acf73;fill-opacity:1">
        <path
           inkscape:connector-curvature="0"
           id="path196"
           style="fill:#6acf73;fill-opacity:1;fill-rule:nonzero;stroke:none"
           d="m 0,0 c -0.024,0.769 -0.215,1.352 -0.578,1.746 -0.354,0.375 -0.811,0.563 -1.37,0.563 -0.556,0 -1.012,-0.188 -1.37,-0.563 C -3.667,1.352 -3.86,0.769 -3.896,0 Z m -3.896,-1.634 c 0,-0.792 0.213,-1.393 0.64,-1.804 0.398,-0.419 0.919,-0.628 1.564,-0.628 0.752,0 1.423,0.32 2.014,0.961 l 1.341,-1.227 c -0.94,-1.076 -2.045,-1.607 -3.318,-1.595 -0.484,0 -0.956,0.075 -1.418,0.229 -0.232,0.081 -0.457,0.192 -0.675,0.332 -0.231,0.119 -0.446,0.268 -0.647,0.446 -0.39,0.366 -0.707,0.879 -0.948,1.537 -0.269,0.635 -0.401,1.458 -0.401,2.471 0,0.975 0.116,1.785 0.347,2.433 0.231,0.658 0.526,1.176 0.886,1.556 0.365,0.386 0.777,0.665 1.234,0.837 0.448,0.169 0.891,0.255 1.329,0.255 C -0.895,4.156 -0.005,3.786 0.723,3.057 1.461,2.317 1.837,1.298 1.848,0 v -1.634 z" />
      </g>
      <g
         transform="matrix(1.1223851,0,0,1.6920606,587.87736,113.36514)"
         id="g198"
         style="fill:#6acf73;fill-opacity:1">
        <path
           inkscape:connector-curvature="0"
           id="path200"
           style="fill:#6acf73;fill-opacity:1;fill-rule:nonzero;stroke:none"
           d="m 0,0 c 0.755,-0.844 1.727,-1.265 2.92,-1.265 0.532,0 0.97,0.113 1.309,0.332 C 4.567,-0.71 4.733,-0.4 4.733,0 4.733,0.354 4.634,0.602 4.433,0.74 4.226,0.886 3.949,0.964 3.605,0.978 L 1.969,1.129 C 1.193,1.206 0.562,1.484 0.075,1.966 c -0.497,0.468 -0.752,1.123 -0.763,1.966 0.011,1.013 0.344,1.772 1.002,2.279 0.64,0.508 1.451,0.76 2.434,0.76 0.427,0 0.809,-0.029 1.145,-0.086 C 4.231,6.823 4.548,6.734 4.844,6.619 5.413,6.373 5.921,6.041 6.372,5.622 L 5.225,4.19 C 4.868,4.465 4.492,4.691 4.094,4.87 3.705,5.031 3.253,5.11 2.743,5.11 2.163,5.11 1.757,4.999 1.526,4.777 1.281,4.556 1.161,4.271 1.161,3.922 1.147,3.699 1.238,3.506 1.435,3.342 1.614,3.157 1.929,3.041 2.377,2.989 L 3.906,2.866 C 4.868,2.791 5.561,2.479 5.988,1.934 6.386,1.402 6.584,0.727 6.584,-0.092 6.571,-1.048 6.208,-1.787 5.491,-2.308 4.782,-2.84 3.874,-3.112 2.767,-3.125 c -1.504,0 -2.856,0.589 -4.057,1.766 z" />
      </g>
      <g
         transform="translate(183.14301,218.91473)"
         id="g202">
        <path
           inkscape:connector-curvature="0"
           id="path204"
           style="fill:#0c4f0f;fill-opacity:1;fill-rule:nonzero;stroke:none"
           d="m 0,0 -2.602,-3.034 c -1.55,-1.811 -4.181,-2.981 -6.701,-2.981 -0.904,0 -1.736,0.149 -2.473,0.442 -0.751,0.297 -1.711,0.87 -2.024,1.914 -0.27,0.902 -0.004,1.993 0.751,3.074 0.178,0.257 0.404,0.525 0.689,0.82 L -8.083,4.668 -33.52,19.354 -54.55,7.212 c -4.47,2.966 -10.475,3.962 -15.479,2.391 -4.065,-1.277 -7.192,-4.093 -8.58,-7.724 -1.04,-2.721 -1.036,-5.736 -0.037,-8.579 l -19.248,-11.112 v -28.623 c -5.896,-1.112 -10.086,-6.148 -10.086,-12.574 0,-6.493 4.207,-12.806 10.086,-15.787 v -17.348 l 64.374,-37.165 64.373,37.165 v 74.332 z" />
      </g>
      <g
         transform="translate(100.14941,155.15063)"
         id="g206">
        <path
           inkscape:connector-curvature="0"
           id="path208"
           style="fill:#6acf73;fill-opacity:1;fill-rule:nonzero;stroke:none"
           d="m 0,0 c 0,-5.57 -4.516,-9.022 -10.086,-7.709 -5.571,1.313 -10.087,6.894 -10.087,12.464 0,5.572 4.516,9.024 10.087,7.71 C -4.516,11.151 0,5.571 0,0" />
      </g>
      <g
         transform="translate(129.59521,218.35763)"
         id="g210">
        <path
           inkscape:connector-curvature="0"
           id="path212"
           style="fill:#ffffff;fill-opacity:1;fill-rule:nonzero;stroke:none"
           d="m 0,0 c 2.845,-4.79 0.726,-10.063 -4.736,-11.779 -5.462,-1.715 -12.194,0.777 -15.036,5.565 -2.846,4.791 -0.727,10.065 4.733,11.78 C -9.577,7.281 -2.845,4.79 0,0" />
      </g>
      <g
         transform="translate(90.062912,198.32343)"
         id="g214">
        <path
           inkscape:connector-curvature="0"
           id="path216"
           style="fill:#6acf73;fill-opacity:1;fill-rule:nonzero;stroke:none"
           d="m 0,0 v -68.773 l 59.56,-34.387 v 68.773 z" />
      </g>
      <g
         transform="translate(209.18161,198.32343)"
         id="g218">
        <path
           inkscape:connector-curvature="0"
           id="path220"
           style="fill:#1b7d23;fill-opacity:1;fill-rule:nonzero;stroke:none"
           d="M 0,0 -59.559,-34.387 V -103.16 L 0,-68.773 Z" />
      </g>
      <g
         transform="translate(201.69431,185.83953)"
         id="g222">
        <path
           inkscape:connector-curvature="0"
           id="path224"
           style="fill:#0c4f0f;fill-opacity:1;fill-rule:nonzero;stroke:none"
           d="m 0,0 c -0.246,0 -0.565,-0.106 -0.9,-0.301 l -41.409,-23.907 c -1.537,-0.886 -2.885,-3.223 -2.885,-4.998 v -47.815 c 0,-0.437 0.079,-1.171 0.61,-1.171 0.246,0 0.565,0.107 0.9,0.301 l 41.409,23.906 c 1.536,0.887 2.885,3.225 2.885,4.999 V -1.171 C 0.61,-0.733 0.531,0 0,0 m -44.584,-80.943 v 0 c -1.979,0 -3.361,1.613 -3.361,3.922 v 47.815 c 0,2.759 1.872,6 4.261,7.381 L -2.275,2.082 C -1.507,2.525 -0.741,2.75 0,2.75 c 1.979,0 3.361,-1.612 3.361,-3.921 v -47.815 c 0,-2.76 -1.873,-6.001 -4.261,-7.382 l -41.409,-23.906 c -0.768,-0.443 -1.534,-0.669 -2.275,-0.669" />
      </g>
      <g
         transform="translate(119.11271,186.47873)"
         id="g226">
        <path
           inkscape:connector-curvature="0"
           id="path228"
           style="fill:#ffffff;fill-opacity:1;fill-rule:nonzero;stroke:none"
           d="m 0,0 c 3.938,3.938 9.572,3.186 12.583,-1.682 3.009,-4.868 2.257,-12.007 -1.681,-15.945 -3.939,-3.94 -9.575,-3.187 -12.584,1.68 C -4.693,-11.079 -3.941,-3.939 0,0" />
      </g>
      <g
         transform="translate(184.19771,212.74683)"
         id="g230">
        <path
           inkscape:connector-curvature="0"
           id="path232"
           style="fill:#ffffff;fill-opacity:1;fill-rule:nonzero;stroke:none"
           d="m 0,0 c -3.479,-4.059 -9.772,-5.799 -14.606,-3.88 -5.179,2.055 -6.722,7.527 -3.446,12.219 0.351,0.501 0.748,0.967 1.173,1.408 l -17.696,10.216 -59.56,-34.386 59.56,-34.387 59.559,34.387 z" />
      </g>
      <g
         transform="translate(191.82861,147.48363)"
         id="g234">
        <path
           inkscape:connector-curvature="0"
           id="path236"
           style="fill:#165919;fill-opacity:1;fill-rule:nonzero;stroke:none"
           d="m 0,0 c -0.65,-6.493 -5.274,-11.344 -10.324,-10.837 -5.052,0.506 -8.615,6.183 -7.966,12.676 0.655,6.493 5.277,11.345 10.327,10.839 C -2.912,12.17 0.654,6.493 0,0" />
      </g>
      <g
         transform="translate(183.50731,156.32833)"
         id="g238">
        <path
           inkscape:connector-curvature="0"
           id="path240"
           style="fill:#ffffff;fill-opacity:1;fill-rule:nonzero;stroke:none"
           d="M 0,0 -0.066,0.007 C -0.143,0.017 -0.254,0.02 -0.367,0.02 h -0.075 l -0.037,2.2 h 0.112 c 0.185,0 0.372,-0.009 0.561,-0.031 z m -4.159,-2.165 -1.739,1.346 c 0.126,0.163 0.257,0.32 0.391,0.472 L -3.858,-1.8 c -0.103,-0.115 -0.204,-0.239 -0.301,-0.365 m -1.879,-4.479 -2.17,0.366 c 0.034,0.196 0.072,0.389 0.112,0.581 l 2.151,-0.456 C -5.979,-6.314 -6.01,-6.477 -6.038,-6.644 m 10.59,-0.598 c -0.003,0.166 -0.006,0.333 -0.013,0.495 l 2.196,0.109 C 6.743,-6.833 6.751,-7.03 6.751,-7.229 Z m -12.427,-4.93 c -0.057,0.193 -0.111,0.387 -0.159,0.583 l 2.136,0.526 c 0.037,-0.155 0.08,-0.312 0.127,-0.467 z m 13.378,-0.812 -1.985,0.938 c 0.068,0.147 0.133,0.297 0.197,0.449 l 2.031,-0.841 C 5.671,-12.623 5.59,-12.805 5.503,-12.984 m -9.863,-4.172 c -0.183,0.116 -0.362,0.24 -0.534,0.377 l 1.353,1.731 c 0.117,-0.09 0.235,-0.173 0.357,-0.251 z" />
      </g>
      <g
         transform="translate(193.02631,146.80393)"
         id="g242">
        <path
           inkscape:connector-curvature="0"
           id="path244"
           style="fill:#6ece77;fill-opacity:1;fill-rule:nonzero;stroke:none"
           d="m 0,0 c -0.421,-4.182 -3.398,-7.308 -6.651,-6.98 -3.254,0.327 -5.548,3.981 -5.128,8.164 0.42,4.182 3.396,7.306 6.648,6.979 C -1.875,7.838 0.417,4.183 0,0" />
      </g>
      <g
         transform="translate(190.20991,147.46703)"
         id="g246">
        <path
           inkscape:connector-curvature="0"
           id="path248"
           style="fill:#6ece77;fill-opacity:1;fill-rule:nonzero;stroke:none"
           d="m 0,0 c -0.422,-4.181 -3.4,-7.306 -6.653,-6.98 -3.251,0.331 -5.548,3.982 -5.129,8.164 0.422,4.182 3.399,7.307 6.652,6.981 C -1.878,7.837 0.417,4.184 0,0" />
      </g>
      <g
         transform="translate(188.57761,154.84593)"
         id="g250">
        <path
           inkscape:connector-curvature="0"
           id="path252"
           style="fill:#6ece77;fill-opacity:1;fill-rule:nonzero;stroke:none"
           d="m 0,0 -3.498,0.786 -1.912,-8.934 -0.746,-5.951 3.637,-0.88 3.638,7.72" />
      </g>
      <g
         transform="translate(189.33781,152.87423)"
         id="g254">
        <path
           inkscape:connector-curvature="0"
           id="path256"
           style="fill:#165919;fill-opacity:1;fill-rule:nonzero;stroke:none"
           d="m 0,0 c -0.098,0.028 -0.196,0.047 -0.292,0.059 -2.069,0.278 -4.248,-2.018 -4.964,-5.228 -0.38,-1.695 -0.302,-3.388 0.214,-4.769 0.483,-1.287 1.293,-2.138 2.289,-2.393 2.153,-0.544 4.507,1.81 5.254,5.171 0.38,1.694 0.302,3.388 -0.215,4.766 C 1.804,-1.104 0.993,-0.253 0,0" />
      </g>
    </g>
  </g>
</svg>
