<?xml version="1.0" encoding="UTF-8" standalone="no"?>
<!-- Created with Inkscape (http://www.inkscape.org/) -->

<svg
   xmlns:dc="http://purl.org/dc/elements/1.1/"
   xmlns:cc="http://creativecommons.org/ns#"
   xmlns:rdf="http://www.w3.org/1999/02/22-rdf-syntax-ns#"
   xmlns:svg="http://www.w3.org/2000/svg"
   xmlns="http://www.w3.org/2000/svg"
   xmlns:sodipodi="http://sodipodi.sourceforge.net/DTD/sodipodi-0.dtd"
   xmlns:inkscape="http://www.inkscape.org/namespaces/inkscape"
   width="210mm"
   height="150mm"
   viewBox="0 0 210 150"
   version="1.1"
   id="svg8"
   sodipodi:docname="puzzzle2.svg"
   inkscape:version="0.92.3 (2405546, 2018-03-11)">
  <defs
     id="defs2">
    <clipPath
       id="clipPath26"
       clipPathUnits="userSpaceOnUse">
      <path
         inkscape:connector-curvature="0"
         id="path24"
         d="M 0,459 H 679 V 0 H 0 Z" />
    </clipPath>
  </defs>
  <sodipodi:namedview
     id="base"
     pagecolor="#ffffff"
     bordercolor="#666666"
     borderopacity="1.0"
     inkscape:pageopacity="0.0"
     inkscape:pageshadow="2"
     inkscape:zoom="0.49497475"
     inkscape:cx="687.78592"
     inkscape:cy="102.4045"
     inkscape:document-units="mm"
     inkscape:current-layer="g20"
     showgrid="false"
     inkscape:window-width="1920"
     inkscape:window-height="1001"
     inkscape:window-x="-9"
     inkscape:window-y="-9"
     inkscape:window-maximized="1" />
  <metadata
     id="metadata5">
    <rdf:RDF>
      <cc:Work
         rdf:about="">
        <dc:format>image/svg+xml</dc:format>
        <dc:type
           rdf:resource="http://purl.org/dc/dcmitype/StillImage" />
        <dc:title></dc:title>
      </cc:Work>
    </rdf:RDF>
  </metadata>
  <g
     inkscape:label="Layer 1"
     inkscape:groupmode="layer"
     id="layer1"
     transform="translate(0,-147)">
    <g
       id="g20"
       transform="matrix(0.35277777,0,0,-0.35277777,-13.085292,202.42592)">
      <g
         transform="translate(260.49334,-54.671954)"
         id="g32">
        <path
           inkscape:connector-curvature="0"
           id="path34"
           style="fill:#6acf73;fill-opacity:1;fill-rule:nonzero;stroke:none"
           d="m 0,0 h 14.91 c 12.725,0 12.65,18.676 0,18.676 H 0 Z M 14.91,-9.111 H 0 V -24.624 H -9.94 V 28.09 c 8.282,0 16.567,0.075 24.85,0.075 25.755,0 25.83,-37.276 0,-37.276" />
      </g>
      <g
         transform="translate(347.69794,-26.657354)"
         id="g36">
        <path
           inkscape:connector-curvature="0"
           id="path38"
           style="fill:#6acf73;fill-opacity:1;fill-rule:nonzero;stroke:none"
           d="m 0,0 v -30.197 c 0,-15.588 -9.563,-23.572 -22.818,-23.572 -12.651,0 -23.421,7.681 -23.421,23.572 V 0 h 9.864 v -30.197 c 0,-9.489 5.424,-14.533 13.632,-14.533 8.209,0 12.876,5.496 12.876,14.533 V 0 Z" />
      </g>
      <g
         transform="translate(352.66814,-26.582154)"
         id="g40">
        <path
           inkscape:connector-curvature="0"
           id="path42"
           style="fill:#6acf73;fill-opacity:1;fill-rule:nonzero;stroke:none"
           d="M 0,0 H 40.514 V -4.669 L 13.18,-43.301 h 27.334 v -9.413 H -0.677 v 5.724 L 26.056,-9.338 H 0 Z" />
      </g>
      <g
         transform="translate(396.79854,-26.582154)"
         id="g44">
        <path
           inkscape:connector-curvature="0"
           id="path46"
           style="fill:#6acf73;fill-opacity:1;fill-rule:nonzero;stroke:none"
           d="M 0,0 H 40.514 V -4.669 L 13.18,-43.301 h 27.334 v -9.413 H -0.677 v 5.724 L 26.056,-9.338 H 0 Z" />
      </g>
      <g
         transform="translate(440.92894,-26.582154)"
         id="g48">
        <path
           inkscape:connector-curvature="0"
           id="path50"
           style="fill:#6acf73;fill-opacity:1;fill-rule:nonzero;stroke:none"
           d="M 0,0 H 40.511 V -4.669 L 13.177,-43.301 h 27.334 v -9.413 H -0.68 v 5.724 L 26.053,-9.338 H 0 Z" />
      </g>
      <g
         transform="translate(497.40844,-26.582154)"
         id="g52">
        <path
           inkscape:connector-curvature="0"
           id="path54"
           style="fill:#6acf73;fill-opacity:1;fill-rule:nonzero;stroke:none"
           d="m 0,0 v -43.526 h 27.109 v -9.188 H -9.942 V 0 Z" />
      </g>
      <g
         transform="translate(570.82934,-79.296054)"
         id="g56">
        <path
           inkscape:connector-curvature="0"
           id="path58"
           style="fill:#6acf73;fill-opacity:1;fill-rule:nonzero;stroke:none"
           d="M 0,0 H -39.458 V 52.714 H 0 V 43.075 H -29.594 V 30.951 H -1.053 V 21.688 H -29.594 V 9.79 H 0 Z" />
      </g>
      <g
         transform="translate(195.26484,-11.400055)"
         id="g202">
        <path
           inkscape:connector-curvature="0"
           id="path204"
           style="fill:#0c4f0f;fill-opacity:1;fill-rule:nonzero;stroke:none"
           d="m 0,0 -2.602,-3.034 c -1.55,-1.811 -4.181,-2.981 -6.701,-2.981 -0.904,0 -1.736,0.149 -2.473,0.442 -0.751,0.297 -1.711,0.87 -2.024,1.914 -0.27,0.902 -0.004,1.993 0.751,3.074 0.178,0.257 0.404,0.525 0.689,0.82 L -8.083,4.668 -33.52,19.354 -54.55,7.212 c -4.47,2.966 -10.475,3.962 -15.479,2.391 -4.065,-1.277 -7.192,-4.093 -8.58,-7.724 -1.04,-2.721 -1.036,-5.736 -0.037,-8.579 l -19.248,-11.112 v -28.623 c -5.896,-1.112 -10.086,-6.148 -10.086,-12.574 0,-6.493 4.207,-12.806 10.086,-15.787 v -17.348 l 64.374,-37.165 64.373,37.165 v 74.332 z" />
      </g>
      <g
         transform="translate(112.27124,-75.164154)"
         id="g206">
        <path
           inkscape:connector-curvature="0"
           id="path208"
           style="fill:#6acf73;fill-opacity:1;fill-rule:nonzero;stroke:none"
           d="m 0,0 c 0,-5.57 -4.516,-9.022 -10.086,-7.709 -5.571,1.313 -10.087,6.894 -10.087,12.464 0,5.572 4.516,9.024 10.087,7.71 C -4.516,11.151 0,5.571 0,0" />
      </g>
      <g
         transform="translate(141.71704,-11.957155)"
         id="g210">
        <path
           inkscape:connector-curvature="0"
           id="path212"
           style="fill:#ffffff;fill-opacity:1;fill-rule:nonzero;stroke:none"
           d="m 0,0 c 2.845,-4.79 0.726,-10.063 -4.736,-11.779 -5.462,-1.715 -12.194,0.777 -15.036,5.565 -2.846,4.791 -0.727,10.065 4.733,11.78 C -9.577,7.281 -2.845,4.79 0,0" />
      </g>
      <g
         transform="translate(102.18474,-31.991354)"
         id="g214">
        <path
           inkscape:connector-curvature="0"
           id="path216"
           style="fill:#6acf73;fill-opacity:1;fill-rule:nonzero;stroke:none"
           d="m 0,0 v -68.773 l 59.56,-34.387 v 68.773 z" />
      </g>
      <g
         transform="translate(221.30344,-31.991354)"
         id="g218">
        <path
           inkscape:connector-curvature="0"
           id="path220"
           style="fill:#1b7d23;fill-opacity:1;fill-rule:nonzero;stroke:none"
           d="M 0,0 -59.559,-34.387 V -103.16 L 0,-68.773 Z" />
      </g>
      <g
         transform="translate(213.81614,-44.475254)"
         id="g222">
        <path
           inkscape:connector-curvature="0"
           id="path224"
           style="fill:#0c4f0f;fill-opacity:1;fill-rule:nonzero;stroke:none"
           d="m 0,0 c -0.246,0 -0.565,-0.106 -0.9,-0.301 l -41.409,-23.907 c -1.537,-0.886 -2.885,-3.223 -2.885,-4.998 v -47.815 c 0,-0.437 0.079,-1.171 0.61,-1.171 0.246,0 0.565,0.107 0.9,0.301 l 41.409,23.906 c 1.536,0.887 2.885,3.225 2.885,4.999 V -1.171 C 0.61,-0.733 0.531,0 0,0 m -44.584,-80.943 v 0 c -1.979,0 -3.361,1.613 -3.361,3.922 v 47.815 c 0,2.759 1.872,6 4.261,7.381 L -2.275,2.082 C -1.507,2.525 -0.741,2.75 0,2.75 c 1.979,0 3.361,-1.612 3.361,-3.921 v -47.815 c 0,-2.76 -1.873,-6.001 -4.261,-7.382 l -41.409,-23.906 c -0.768,-0.443 -1.534,-0.669 -2.275,-0.669" />
      </g>
      <g
         transform="translate(131.23454,-43.836054)"
         id="g226">
        <path
           inkscape:connector-curvature="0"
           id="path228"
           style="fill:#ffffff;fill-opacity:1;fill-rule:nonzero;stroke:none"
           d="m 0,0 c 3.938,3.938 9.572,3.186 12.583,-1.682 3.009,-4.868 2.257,-12.007 -1.681,-15.945 -3.939,-3.94 -9.575,-3.187 -12.584,1.68 C -4.693,-11.079 -3.941,-3.939 0,0" />
      </g>
      <g
         transform="translate(196.31954,-17.567954)"
         id="g230">
        <path
           inkscape:connector-curvature="0"
           id="path232"
           style="fill:#ffffff;fill-opacity:1;fill-rule:nonzero;stroke:none"
           d="m 0,0 c -3.479,-4.059 -9.772,-5.799 -14.606,-3.88 -5.179,2.055 -6.722,7.527 -3.446,12.219 0.351,0.501 0.748,0.967 1.173,1.408 l -17.696,10.216 -59.56,-34.386 59.56,-34.387 59.559,34.387 z" />
      </g>
      <g
         transform="translate(203.95044,-82.831154)"
         id="g234">
        <path
           inkscape:connector-curvature="0"
           id="path236"
           style="fill:#165919;fill-opacity:1;fill-rule:nonzero;stroke:none"
           d="m 0,0 c -0.65,-6.493 -5.274,-11.344 -10.324,-10.837 -5.052,0.506 -8.615,6.183 -7.966,12.676 0.655,6.493 5.277,11.345 10.327,10.839 C -2.912,12.17 0.654,6.493 0,0" />
      </g>
      <g
         transform="translate(195.62914,-73.986454)"
         id="g238">
        <path
           inkscape:connector-curvature="0"
           id="path240"
           style="fill:#ffffff;fill-opacity:1;fill-rule:nonzero;stroke:none"
           d="M 0,0 -0.066,0.007 C -0.143,0.017 -0.254,0.02 -0.367,0.02 h -0.075 l -0.037,2.2 h 0.112 c 0.185,0 0.372,-0.009 0.561,-0.031 z m -4.159,-2.165 -1.739,1.346 c 0.126,0.163 0.257,0.32 0.391,0.472 L -3.858,-1.8 c -0.103,-0.115 -0.204,-0.239 -0.301,-0.365 m -1.879,-4.479 -2.17,0.366 c 0.034,0.196 0.072,0.389 0.112,0.581 l 2.151,-0.456 C -5.979,-6.314 -6.01,-6.477 -6.038,-6.644 m 10.59,-0.598 c -0.003,0.166 -0.006,0.333 -0.013,0.495 l 2.196,0.109 C 6.743,-6.833 6.751,-7.03 6.751,-7.229 Z m -12.427,-4.93 c -0.057,0.193 -0.111,0.387 -0.159,0.583 l 2.136,0.526 c 0.037,-0.155 0.08,-0.312 0.127,-0.467 z m 13.378,-0.812 -1.985,0.938 c 0.068,0.147 0.133,0.297 0.197,0.449 l 2.031,-0.841 C 5.671,-12.623 5.59,-12.805 5.503,-12.984 m -9.863,-4.172 c -0.183,0.116 -0.362,0.24 -0.534,0.377 l 1.353,1.731 c 0.117,-0.09 0.235,-0.173 0.357,-0.251 z" />
      </g>
      <g
         transform="translate(205.14814,-83.510854)"
         id="g242">
        <path
           inkscape:connector-curvature="0"
           id="path244"
           style="fill:#6ece77;fill-opacity:1;fill-rule:nonzero;stroke:none"
           d="m 0,0 c -0.421,-4.182 -3.398,-7.308 -6.651,-6.98 -3.254,0.327 -5.548,3.981 -5.128,8.164 0.42,4.182 3.396,7.306 6.648,6.979 C -1.875,7.838 0.417,4.183 0,0" />
      </g>
      <g
         transform="translate(202.33174,-82.847754)"
         id="g246">
        <path
           inkscape:connector-curvature="0"
           id="path248"
           style="fill:#6ece77;fill-opacity:1;fill-rule:nonzero;stroke:none"
           d="m 0,0 c -0.422,-4.181 -3.4,-7.306 -6.653,-6.98 -3.251,0.331 -5.548,3.982 -5.129,8.164 0.422,4.182 3.399,7.307 6.652,6.981 C -1.878,7.837 0.417,4.184 0,0" />
      </g>
      <g
         transform="translate(200.69944,-75.468854)"
         id="g250">
        <path
           inkscape:connector-curvature="0"
           id="path252"
           style="fill:#6ece77;fill-opacity:1;fill-rule:nonzero;stroke:none"
           d="m 0,0 -3.498,0.786 -1.912,-8.934 -0.746,-5.951 3.637,-0.88 3.638,7.72" />
      </g>
      <g
         transform="translate(201.45964,-77.440554)"
         id="g254">
        <path
           inkscape:connector-curvature="0"
           id="path256"
           style="fill:#165919;fill-opacity:1;fill-rule:nonzero;stroke:none"
           d="m 0,0 c -0.098,0.028 -0.196,0.047 -0.292,0.059 -2.069,0.278 -4.248,-2.018 -4.964,-5.228 -0.38,-1.695 -0.302,-3.388 0.214,-4.769 0.483,-1.287 1.293,-2.138 2.289,-2.393 2.153,-0.544 4.507,1.81 5.254,5.171 0.38,1.694 0.302,3.388 -0.215,4.766 C 1.804,-1.104 0.993,-0.253 0,0" />
      </g>
    </g>
  </g>
</svg>
