<?xml version="1.0" encoding="utf-8"?>
<!-- Generator: Adobe Illustrator 16.0.0, SVG Export Plug-In . SVG Version: 6.00 Build 0)  -->
<!DOCTYPE svg PUBLIC "-//W3C//DTD SVG 1.1//EN" "http://www.w3.org/Graphics/SVG/1.1/DTD/svg11.dtd">
<svg version="1.1" xmlns="http://www.w3.org/2000/svg" xmlns:xlink="http://www.w3.org/1999/xlink" x="0px" y="0px" width="649px"
	 height="214px" viewBox="0 0 649 214" enable-background="new 0 0 649 214" xml:space="preserve">
<g id="Grid">
</g>
<g id="Logo">
	<g>
		<g>
			<g>
				<path fill="#6ACF73" d="M254.536,103.616h-19.442v20.229h-12.961V55.106c10.8,0,21.604-0.098,32.404-0.098
					C288.12,55.008,288.218,103.616,254.536,103.616z M235.094,91.735h19.442c16.594,0,16.496-24.354,0-24.354h-19.442V91.735z"/>
				<path fill="#6ACF73" d="M348.808,55.205v39.377c0,20.327-12.471,30.737-29.755,30.737c-16.497,0-30.541-10.016-30.541-30.737
					V55.205h12.864v39.377c0,12.373,7.072,18.952,17.775,18.952c10.705,0,16.79-7.167,16.79-18.952V55.205H348.808z"/>
				<path fill="#6ACF73" d="M355.289,55.106h52.83v6.089l-35.644,50.375h35.644v12.274h-53.713v-7.463l34.859-49.098h-33.976V55.106
					z"/>
				<path fill="#6ACF73" d="M412.834,55.106h52.83v6.089l-35.644,50.375h35.644v12.274h-53.713v-7.463l34.86-49.098h-33.977V55.106z
					"/>
				<path fill="#6ACF73" d="M470.38,55.106h52.826v6.089l-35.644,50.375h35.644v12.274h-53.713v-7.463l34.859-49.098H470.38V55.106z
					"/>
				<path fill="#6ACF73" d="M544.029,55.106v56.758h35.351v11.98h-48.315V55.106H544.029z"/>
				<path fill="#6ACF73" d="M639.769,123.845h-51.454c0-22.881,0-45.857,0-68.738h51.454v12.569h-38.59v15.81h37.216v12.079h-37.216
					v15.515h38.59V123.845z"/>
			</g>
			<g>
				<path fill="#0C4F0F" d="M225.082,134.93h6.541c1.657,0.019,2.904,0.463,3.738,1.339c0.841,0.883,1.261,2.052,1.261,3.503
					c0.016,0.745-0.151,1.454-0.498,2.132c-0.178,0.321-0.433,0.627-0.764,0.916c-0.333,0.306-0.741,0.582-1.226,0.83v0.05
					c0.921,0.256,1.617,0.771,2.088,1.548c0.442,0.803,0.662,1.671,0.662,2.613c-0.016,1.561-0.471,2.795-1.366,3.703
					c-0.89,0.949-1.998,1.425-3.325,1.425h-7.111V134.93z M227.635,137.356v5.192h3.696c0.934,0,1.622-0.262,2.06-0.784
					c0.448-0.482,0.672-1.089,0.672-1.818c0-0.731-0.224-1.349-0.672-1.856c-0.438-0.473-1.126-0.717-2.06-0.733H227.635z
					 M227.635,144.974v5.44h3.945c0.951-0.019,1.646-0.295,2.087-0.833c0.442-0.53,0.662-1.16,0.662-1.889
					c0-0.742-0.22-1.382-0.662-1.913c-0.441-0.521-1.136-0.788-2.087-0.806H227.635z"/>
				<path fill="#0C4F0F" d="M239.788,134.93h2.412v14.752c0,0.586,0.303,0.88,0.905,0.88h0.836v2.427h-1.075
					c-0.879,0-1.604-0.234-2.174-0.704c-0.603-0.476-0.904-1.278-0.904-2.406V134.93z"/>
				<path fill="#0C4F0F" d="M245.498,146.547c0-1.355,0.105-2.398,0.314-3.125c0.215-0.711,0.548-1.312,0.995-1.801
					c0.331-0.427,0.795-0.809,1.389-1.146c0.585-0.318,1.338-0.488,2.256-0.504c0.95,0.017,1.717,0.186,2.303,0.508
					c0.58,0.338,1.025,0.721,1.343,1.152c0.477,0.487,0.813,1.085,1.015,1.793c0.191,0.729,0.289,1.77,0.289,3.122
					c0,1.355-0.098,2.387-0.291,3.097c-0.199,0.71-0.54,1.325-1.016,1.847c-0.156,0.188-0.343,0.374-0.568,0.556
					c-0.201,0.207-0.458,0.387-0.776,0.532c-0.587,0.357-1.354,0.542-2.301,0.559c-0.917-0.017-1.669-0.201-2.254-0.559
					c-0.596-0.321-1.058-0.685-1.389-1.088c-0.446-0.521-0.779-1.137-0.995-1.847C245.603,148.934,245.498,147.902,245.498,146.547z
					 M252.989,146.57c0-0.917-0.039-1.589-0.116-2.011c-0.079-0.406-0.236-0.763-0.475-1.069c-0.179-0.289-0.441-0.518-0.79-0.683
					c-0.331-0.175-0.719-0.261-1.159-0.261c-0.41,0-0.789,0.086-1.137,0.261c-0.333,0.165-0.603,0.394-0.811,0.683
					c-0.208,0.307-0.359,0.663-0.454,1.069c-0.091,0.422-0.139,1.085-0.139,1.987c0,0.896,0.048,1.549,0.139,1.965
					c0.094,0.422,0.245,0.796,0.454,1.117c0.208,0.249,0.478,0.471,0.811,0.659c0.348,0.182,0.727,0.273,1.137,0.273
					c0.44,0,0.828-0.092,1.159-0.273c0.349-0.188,0.611-0.41,0.79-0.659c0.238-0.321,0.396-0.695,0.475-1.117
					C252.951,148.096,252.989,147.45,252.989,146.57z"/>
				<path fill="#0C4F0F" d="M267.168,150.918c-0.526,0.642-1.143,1.164-1.852,1.566c-0.709,0.419-1.533,0.636-2.466,0.652
					c-1.417,0-2.661-0.516-3.733-1.549c-1.106-1.03-1.678-2.705-1.709-5.018c0.031-2.335,0.603-4.027,1.713-5.075
					c1.07-1.033,2.316-1.541,3.734-1.523c0.932,0.017,1.753,0.222,2.463,0.616c0.709,0.405,1.326,0.943,1.85,1.62l-1.782,1.693
					c-0.609-0.872-1.424-1.321-2.442-1.354c-2.053-0.033-3.095,1.309-3.124,4.023c0.029,2.701,1.071,4.033,3.122,3.991
					c1.02-0.017,1.833-0.462,2.442-1.342L267.168,150.918z"/>
				<path fill="#0C4F0F" d="M269.189,134.93h2.41v11.233h0.051l4.619-6.031h2.894l-4.144,5.018l4.711,7.839h-3.033l-3.198-6.008
					l-1.899,2.305v3.703h-2.41V134.93z"/>
				<path fill="#0C4F0F" d="M290.728,150.918c-0.525,0.642-1.142,1.164-1.851,1.566c-0.711,0.419-1.532,0.636-2.466,0.652
					c-1.419,0-2.662-0.516-3.732-1.549c-1.109-1.03-1.68-2.705-1.71-5.018c0.03-2.335,0.601-4.027,1.712-5.075
					c1.071-1.033,2.315-1.541,3.734-1.523c0.934,0.017,1.755,0.222,2.463,0.616c0.711,0.405,1.328,0.943,1.851,1.62l-1.781,1.693
					c-0.61-0.872-1.426-1.321-2.442-1.354c-2.053-0.033-3.095,1.309-3.125,4.023c0.03,2.701,1.072,4.033,3.123,3.991
					c1.018-0.017,1.833-0.462,2.442-1.342L290.728,150.918z"/>
				<path fill="#0C4F0F" d="M292.748,134.93h2.41v6.565h0.046c0.795-1.016,1.835-1.523,3.121-1.523c0.995,0,1.906,0.374,2.729,1.128
					c0.818,0.758,1.245,1.873,1.284,3.342v8.547h-2.41v-7.664c0-0.9-0.224-1.587-0.67-2.06c-0.442-0.479-1.009-0.718-1.703-0.718
					c-0.694,0-1.265,0.239-1.713,0.718c-0.455,0.473-0.683,1.159-0.683,2.06v7.664h-2.41V134.93z"/>
				<path fill="#0C4F0F" d="M312.197,151.851h-0.046c-0.224,0.437-0.571,0.759-1.044,0.964c-0.462,0.215-1.1,0.322-1.92,0.322
					c-1.341-0.017-2.375-0.396-3.096-1.139c-0.764-0.728-1.146-1.655-1.146-2.788c0-1.079,0.329-1.978,0.995-2.687
					c0.662-0.728,1.632-1.098,2.915-1.115h3.342v-1.355c0.014-1.136-0.806-1.688-2.466-1.655c-0.603,0-1.076,0.066-1.422,0.2
					c-0.364,0.156-0.648,0.421-0.854,0.796l-1.899-1.551c0.917-1.281,2.27-1.904,4.057-1.871c1.513-0.018,2.719,0.289,3.618,0.916
					c0.904,0.644,1.363,1.749,1.377,3.319v8.781h-2.41V151.851z M312.197,147.538H309.3c-1.408,0.031-2.102,0.551-2.088,1.549
					c0,0.438,0.182,0.809,0.547,1.115c0.347,0.338,0.921,0.509,1.727,0.509c1.009,0.015,1.727-0.111,2.144-0.385
					c0.378-0.272,0.568-0.893,0.568-1.859V147.538z"/>
				<path fill="#0C4F0F" d="M318.195,134.93h2.41v2.575h-2.41V134.93z M318.195,140.132h2.41v12.856h-2.41V140.132z"/>
				<path fill="#0C4F0F" d="M323.989,140.132h2.41v1.363h0.046c0.795-1.016,1.835-1.523,3.121-1.523
					c0.995,0,1.906,0.374,2.729,1.128c0.816,0.758,1.244,1.873,1.282,3.342v8.547h-2.41v-7.664c0-0.9-0.224-1.587-0.669-2.06
					c-0.441-0.479-1.008-0.718-1.703-0.718c-0.693,0-1.264,0.239-1.712,0.718c-0.456,0.473-0.684,1.159-0.684,2.06v7.664h-2.41
					V140.132z"/>
				<path fill="#0C4F0F" d="M354.588,147.944c-0.367,1.671-1.075,2.958-2.116,3.857c-1.076,0.889-2.343,1.335-3.812,1.335
					c-1.324-0.032-2.431-0.379-3.317-1.041c-0.904-0.634-1.559-1.37-1.968-2.204c-0.123-0.272-0.235-0.532-0.333-0.78
					c-0.095-0.256-0.171-0.578-0.231-0.967c-0.115-0.726-0.175-2.121-0.175-4.188c0-2.095,0.06-3.499,0.175-4.209
					c0.123-0.71,0.312-1.283,0.567-1.721c0.407-0.834,1.062-1.577,1.965-2.23c0.887-0.66,1.994-0.999,3.321-1.016
					c1.629,0.017,2.953,0.531,3.979,1.547c1.026,1.022,1.674,2.287,1.944,3.795h-2.711c-0.207-0.726-0.588-1.349-1.135-1.861
					c-0.571-0.486-1.268-0.739-2.088-0.757c-0.603,0.018-1.118,0.144-1.552,0.386c-0.441,0.249-0.795,0.557-1.065,0.93
					c-0.332,0.389-0.553,0.891-0.661,1.502c-0.123,0.646-0.186,1.857-0.186,3.635c0,1.78,0.063,2.985,0.186,3.612
					c0.108,0.631,0.329,1.14,0.661,1.527c0.27,0.373,0.627,0.677,1.065,0.907c0.434,0.273,0.953,0.41,1.556,0.41
					c1.436,0,2.512-0.823,3.222-2.47H354.588z"/>
				<path fill="#0C4F0F" d="M354.869,140.132h2.557l2.844,9.007h0.046l2.83-9.007h2.568l-5.167,15.52
					c-0.333,0.967-0.792,1.634-1.376,2.007c-0.592,0.354-1.265,0.532-2.011,0.532h-0.799v-2.427h0.705
					c0.315,0,0.609-0.092,0.879-0.274c0.27-0.188,0.459-0.471,0.567-0.844l0.659-2.157L354.869,140.132z"/>
				<path fill="#0C4F0F" d="M367.462,134.93h2.41v6.565c0.438-0.455,0.921-0.827,1.447-1.116c0.483-0.271,1.037-0.407,1.654-0.407
					c1.471,0.042,2.546,0.603,3.226,1.685c0.329,0.402,0.557,0.935,0.68,1.597c0.116,0.652,0.171,1.75,0.171,3.294
					c0,1.52-0.056,2.61-0.171,3.272c-0.123,0.692-0.351,1.241-0.683,1.646c-0.329,0.492-0.767,0.892-1.307,1.187
					c-0.533,0.307-1.17,0.468-1.919,0.484c-1.261-0.032-2.295-0.53-3.097-1.489v1.341h-2.41V134.93z M372.244,142.547
					c-0.54,0-0.967,0.118-1.282,0.36c-0.333,0.239-0.579,0.554-0.732,0.943c-0.147,0.39-0.241,0.812-0.287,1.267
					c-0.046,0.458-0.07,0.934-0.07,1.43c0,0.455,0.024,0.922,0.07,1.393c0.046,0.481,0.14,0.916,0.287,1.304
					c0.154,0.39,0.399,0.704,0.732,0.946c0.315,0.248,0.742,0.372,1.282,0.372c0.571,0,1.022-0.116,1.355-0.348
					c0.333-0.24,0.567-0.546,0.704-0.921c0.154-0.389,0.259-0.826,0.315-1.316c0.014-0.464,0.021-0.939,0.021-1.43
					c0-0.511-0.007-1.014-0.021-1.503c-0.056-0.456-0.161-0.879-0.315-1.269c-0.137-0.389-0.371-0.695-0.704-0.918
					C373.267,142.649,372.815,142.547,372.244,142.547z"/>
				<path fill="#0C4F0F" d="M381.972,147.538c0,1.033,0.281,1.817,0.834,2.354c0.519,0.546,1.198,0.819,2.039,0.819
					c0.98,0,1.856-0.418,2.627-1.254l1.749,1.6c-1.227,1.403-2.666,2.097-4.327,2.08c-0.63,0-1.247-0.099-1.85-0.299
					c-0.301-0.105-0.592-0.25-0.879-0.433c-0.301-0.155-0.581-0.35-0.844-0.582c-0.508-0.478-0.921-1.146-1.236-2.004
					c-0.347-0.828-0.522-1.901-0.522-3.222c0-1.272,0.151-2.328,0.452-3.173c0.301-0.857,0.687-1.534,1.156-2.029
					c0.48-0.503,1.016-0.867,1.608-1.092c0.585-0.22,1.163-0.332,1.734-0.332c1.373,0.017,2.533,0.499,3.482,1.45
					c0.963,0.964,1.454,2.294,1.472,3.986v2.13H381.972z M387.051,145.408c-0.028-1.002-0.28-1.763-0.753-2.277
					c-0.462-0.489-1.058-0.733-1.787-0.733c-0.726,0-1.321,0.244-1.783,0.733c-0.459,0.515-0.708,1.275-0.757,2.277H387.051z"/>
				<path fill="#0C4F0F" d="M392.394,140.132h2.411v1.363h0.052c0.792-1.016,1.835-1.523,3.125-1.523
					c0.963,0.017,1.804,0.345,2.522,0.987l-1.762,2.231c-0.508-0.429-1.038-0.644-1.587-0.644c-0.617,0-1.146,0.212-1.587,0.644
					c-0.494,0.422-0.746,1.104-0.763,2.046v7.752h-2.411V140.132z"/>
				<path fill="#0C4F0F" d="M402.266,149.062c0.98,1.101,2.249,1.649,3.804,1.649c0.697,0,1.265-0.146,1.707-0.434
					c0.441-0.29,0.662-0.693,0.662-1.216c0-0.462-0.133-0.784-0.396-0.966c-0.27-0.189-0.627-0.291-1.075-0.309l-2.134-0.198
					c-1.012-0.101-1.836-0.463-2.469-1.091c-0.652-0.61-0.984-1.465-0.999-2.563c0.014-1.322,0.452-2.312,1.31-2.972
					c0.834-0.663,1.892-0.991,3.17-0.991c0.557,0,1.055,0.037,1.497,0.112c0.438,0.08,0.851,0.196,1.239,0.346
					c0.739,0.321,1.405,0.754,1.99,1.301l-1.496,1.866c-0.462-0.357-0.952-0.653-1.471-0.886c-0.511-0.21-1.1-0.313-1.762-0.313
					c-0.76,0-1.29,0.146-1.591,0.435c-0.315,0.289-0.476,0.659-0.476,1.115c-0.014,0.29,0.105,0.543,0.361,0.757
					c0.231,0.24,0.641,0.392,1.229,0.459l1.993,0.161c1.25,0.098,2.158,0.504,2.711,1.216c0.519,0.692,0.778,1.574,0.778,2.641
					c-0.014,1.247-0.49,2.211-1.422,2.89c-0.929,0.694-2.112,1.05-3.556,1.066c-1.958,0-3.724-0.769-5.29-2.303L402.266,149.062z"/>
				<path fill="#0C4F0F" d="M415.473,147.538c0,1.033,0.276,1.817,0.833,2.354c0.515,0.546,1.195,0.819,2.039,0.819
					c0.977,0,1.856-0.418,2.627-1.254l1.749,1.6c-1.227,1.403-2.67,2.097-4.327,2.08c-0.634,0-1.25-0.099-1.85-0.299
					c-0.301-0.105-0.595-0.25-0.879-0.433c-0.301-0.155-0.585-0.35-0.844-0.582c-0.511-0.478-0.921-1.146-1.24-2.004
					c-0.346-0.828-0.518-1.901-0.518-3.222c0-1.272,0.151-2.328,0.448-3.173c0.302-0.857,0.687-1.534,1.16-2.029
					c0.476-0.503,1.012-0.867,1.607-1.092c0.585-0.22,1.163-0.332,1.734-0.332c1.374,0.017,2.533,0.499,3.482,1.45
					c0.963,0.964,1.454,2.294,1.468,3.986v2.13H415.473z M420.551,145.408c-0.031-1.002-0.283-1.763-0.753-2.277
					c-0.466-0.489-1.062-0.733-1.787-0.733c-0.729,0-1.324,0.244-1.787,0.733c-0.455,0.515-0.708,1.275-0.752,2.277H420.551z"/>
				<path fill="#0C4F0F" d="M434.732,150.918c-0.526,0.642-1.142,1.164-1.854,1.566c-0.711,0.419-1.531,0.636-2.466,0.652
					c-1.419,0-2.662-0.516-3.73-1.549c-1.111-1.03-1.683-2.705-1.71-5.018c0.028-2.335,0.599-4.027,1.71-5.075
					c1.071-1.033,2.315-1.541,3.733-1.523c0.936,0.017,1.755,0.222,2.463,0.616c0.711,0.405,1.328,0.943,1.854,1.62l-1.784,1.693
					c-0.609-0.872-1.425-1.321-2.441-1.354c-2.053-0.033-3.094,1.309-3.125,4.023c0.031,2.701,1.072,4.033,3.125,3.991
					c1.016-0.017,1.832-0.462,2.441-1.342L434.732,150.918z"/>
				<path fill="#0C4F0F" d="M436.75,140.132h2.41v7.665c0,0.867,0.228,1.545,0.683,2.032c0.448,0.489,1.02,0.732,1.713,0.732
					c0.697,0,1.265-0.243,1.703-0.732c0.448-0.487,0.672-1.165,0.672-2.032v-7.665h2.411v12.856h-2.411v-1.376h-0.045
					c-0.795,1.016-1.832,1.524-3.111,1.524c-0.995-0.017-1.892-0.404-2.694-1.162c-0.873-0.74-1.313-1.837-1.331-3.287V140.132z"/>
				<path fill="#0C4F0F" d="M449.89,140.132h2.414v1.363h0.049c0.795-1.016,1.835-1.523,3.125-1.523
					c0.966,0.017,1.808,0.345,2.526,0.987l-1.763,2.231c-0.511-0.429-1.041-0.644-1.586-0.644c-0.617,0-1.146,0.212-1.587,0.644
					c-0.494,0.422-0.75,1.104-0.764,2.046v7.752h-2.414V140.132z"/>
				<path fill="#0C4F0F" d="M459.485,134.93h2.41v2.575h-2.41V134.93z M459.485,140.132h2.41v12.856h-2.41V140.132z"/>
				<path fill="#0C4F0F" d="M465.423,136.219h2.411v3.913h1.758v1.98h-1.758v7.497c-0.014,0.65,0.269,0.97,0.858,0.952h0.9v2.427
					h-1.258c-0.847,0-1.541-0.279-2.081-0.842c-0.553-0.536-0.83-1.312-0.83-2.326v-7.708h-1.212v-1.98h1.212V136.219z"/>
				<path fill="#0C4F0F" d="M470.344,140.132h2.554l2.845,9.007h0.045l2.834-9.007h2.568l-5.17,15.52
					c-0.33,0.967-0.788,1.634-1.377,2.007c-0.592,0.354-1.261,0.532-2.011,0.532h-0.798v-2.427h0.707
					c0.315,0,0.61-0.092,0.879-0.274c0.27-0.188,0.459-0.471,0.564-0.844l0.659-2.157L470.344,140.132z"/>
				<path fill="#0C4F0F" d="M489.185,142.112h-1.22v-1.98h1.22v-1.697c0-1.22,0.315-2.12,0.949-2.698
					c0.617-0.537,1.391-0.807,2.322-0.807h1.562v2.427h-1.38c-0.728-0.024-1.075,0.333-1.043,1.07v1.705h2.424v1.98h-2.424v10.876
					h-2.41V142.112z"/>
				<path fill="#0C4F0F" d="M495,146.547c0-1.355,0.105-2.398,0.315-3.125c0.213-0.711,0.546-1.312,0.995-1.801
					c0.329-0.427,0.795-0.809,1.388-1.146c0.585-0.318,1.338-0.488,2.256-0.504c0.949,0.017,1.716,0.186,2.305,0.508
					c0.578,0.338,1.023,0.721,1.342,1.152c0.476,0.487,0.812,1.085,1.016,1.793c0.189,0.729,0.287,1.77,0.287,3.122
					c0,1.355-0.098,2.387-0.291,3.097c-0.2,0.71-0.54,1.325-1.016,1.847c-0.154,0.188-0.343,0.374-0.567,0.556
					c-0.2,0.207-0.459,0.387-0.774,0.532c-0.589,0.357-1.355,0.542-2.302,0.559c-0.918-0.017-1.671-0.201-2.256-0.559
					c-0.596-0.321-1.059-0.685-1.388-1.088c-0.448-0.521-0.781-1.137-0.995-1.847C495.105,148.934,495,147.902,495,146.547z
					 M502.493,146.57c0-0.917-0.039-1.589-0.116-2.011c-0.08-0.406-0.238-0.763-0.477-1.069c-0.178-0.289-0.441-0.518-0.788-0.683
					c-0.332-0.175-0.721-0.261-1.159-0.261c-0.41,0-0.789,0.086-1.139,0.261c-0.333,0.165-0.603,0.394-0.809,0.683
					c-0.21,0.307-0.361,0.663-0.456,1.069c-0.091,0.422-0.137,1.085-0.137,1.987c0,0.896,0.046,1.549,0.137,1.965
					c0.095,0.422,0.245,0.796,0.456,1.117c0.207,0.249,0.476,0.471,0.809,0.659c0.35,0.182,0.729,0.273,1.139,0.273
					c0.438,0,0.827-0.092,1.159-0.273c0.347-0.188,0.61-0.41,0.788-0.659c0.238-0.321,0.396-0.695,0.477-1.117
					C502.454,148.096,502.493,147.45,502.493,146.57z"/>
				<path fill="#0C4F0F" d="M507.832,140.132h2.41v1.363h0.053c0.794-1.016,1.835-1.523,3.125-1.523
					c0.963,0.017,1.804,0.345,2.522,0.987l-1.759,2.231c-0.512-0.429-1.04-0.644-1.587-0.644c-0.62,0-1.149,0.212-1.587,0.644
					c-0.494,0.422-0.75,1.104-0.767,2.046v7.752h-2.41V140.132z"/>
				<path fill="#0C4F0F" d="M523.435,134.93h10.775v2.575h-8.222v5.168h7.021v2.423h-7.021v5.318h8.222v2.574h-10.775V134.93z"/>
				<path fill="#0C4F0F" d="M536.827,140.132h2.41v1.363h0.045c0.795-1.016,1.835-1.523,3.122-1.523
					c0.995,0,1.905,0.374,2.729,1.128c0.819,0.758,1.247,1.873,1.286,3.342v8.547h-2.411v-7.664c0-0.9-0.224-1.587-0.672-2.06
					c-0.441-0.479-1.009-0.718-1.703-0.718s-1.265,0.239-1.713,0.718c-0.455,0.473-0.683,1.159-0.683,2.06v7.664h-2.41V140.132z"/>
				<path fill="#0C4F0F" d="M550.111,136.219h2.41v3.913h1.762v1.98h-1.762v7.497c-0.014,0.65,0.27,0.97,0.858,0.952h0.903v2.427
					h-1.26c-0.848,0-1.542-0.279-2.078-0.842c-0.557-0.536-0.833-1.312-0.833-2.326v-7.708h-1.208v-1.98h1.208V136.219z"/>
				<path fill="#0C4F0F" d="M558.578,147.538c0,1.033,0.276,1.817,0.833,2.354c0.519,0.546,1.198,0.819,2.039,0.819
					c0.981,0,1.856-0.418,2.627-1.254l1.748,1.6c-1.226,1.403-2.666,2.097-4.326,2.08c-0.63,0-1.247-0.099-1.85-0.299
					c-0.301-0.105-0.595-0.25-0.879-0.433c-0.301-0.155-0.582-0.35-0.844-0.582c-0.508-0.478-0.921-1.146-1.236-2.004
					c-0.351-0.828-0.522-1.901-0.522-3.222c0-1.272,0.151-2.328,0.452-3.173c0.301-0.857,0.687-1.534,1.156-2.029
					c0.477-0.503,1.013-0.867,1.608-1.092c0.585-0.22,1.163-0.332,1.734-0.332c1.373,0.017,2.533,0.499,3.482,1.45
					c0.963,0.964,1.454,2.294,1.468,3.986v2.13H558.578z M563.657,145.408c-0.031-1.002-0.28-1.763-0.753-2.277
					c-0.462-0.489-1.057-0.733-1.786-0.733c-0.725,0-1.321,0.244-1.787,0.733c-0.455,0.515-0.707,1.275-0.752,2.277H563.657z"/>
				<path fill="#0C4F0F" d="M569,140.132h2.41v1.363h0.049c0.795-1.016,1.839-1.523,3.128-1.523
					c0.963,0.017,1.804,0.345,2.522,0.987l-1.762,2.231c-0.508-0.429-1.037-0.644-1.586-0.644c-0.617,0-1.146,0.212-1.587,0.644
					c-0.494,0.422-0.75,1.104-0.764,2.046v7.752H569V140.132z"/>
				<path fill="#0C4F0F" d="M578.521,140.132h2.41v1.339c0.803-0.96,1.836-1.457,3.101-1.499c1.471,0.042,2.547,0.603,3.226,1.685
					c0.329,0.402,0.557,0.935,0.68,1.597c0.115,0.652,0.171,1.759,0.171,3.317c0,1.521-0.056,2.61-0.171,3.273
					c-0.123,0.658-0.351,1.2-0.684,1.622c-0.329,0.492-0.767,0.892-1.306,1.187c-0.533,0.307-1.17,0.468-1.92,0.484
					c-0.616,0-1.167-0.145-1.653-0.432c-0.522-0.263-1.005-0.623-1.444-1.084v6.569h-2.41V140.132z M583.303,150.562
					c0.57,0,1.022-0.116,1.355-0.348c0.333-0.24,0.567-0.546,0.704-0.921c0.154-0.389,0.259-0.82,0.315-1.292
					c0.014-0.463,0.021-0.938,0.021-1.431c0-0.511-0.007-1.012-0.021-1.502c-0.056-0.488-0.161-0.92-0.315-1.293
					c-0.137-0.389-0.371-0.695-0.704-0.918c-0.333-0.208-0.785-0.311-1.355-0.311c-0.54,0-0.967,0.118-1.282,0.36
					c-0.333,0.239-0.578,0.554-0.732,0.943c-0.147,0.39-0.242,0.812-0.287,1.267c-0.046,0.481-0.07,0.967-0.07,1.453
					c0,0.457,0.024,0.913,0.07,1.369c0.045,0.481,0.14,0.916,0.287,1.304c0.154,0.39,0.399,0.704,0.732,0.946
					C582.335,150.438,582.763,150.562,583.303,150.562z"/>
				<path fill="#0C4F0F" d="M591.22,140.132h2.41v1.363h0.049c0.795-1.016,1.839-1.523,3.128-1.523
					c0.963,0.017,1.805,0.345,2.522,0.987l-1.762,2.231c-0.508-0.429-1.037-0.644-1.586-0.644c-0.617,0-1.146,0.212-1.587,0.644
					c-0.494,0.422-0.75,1.104-0.764,2.046v7.752h-2.41V140.132z"/>
				<path fill="#0C4F0F" d="M600.811,134.93h2.41v2.575h-2.41V134.93z M600.811,140.132h2.41v12.856h-2.41V140.132z"/>
				<path fill="#0C4F0F" d="M606.955,149.062c0.984,1.101,2.253,1.649,3.809,1.649c0.693,0,1.265-0.146,1.702-0.434
					c0.442-0.29,0.663-0.693,0.663-1.216c0-0.462-0.129-0.784-0.393-0.966c-0.273-0.189-0.63-0.291-1.079-0.309l-2.133-0.198
					c-1.013-0.101-1.836-0.463-2.47-1.091c-0.648-0.61-0.98-1.465-0.998-2.563c0.018-1.322,0.452-2.312,1.31-2.972
					c0.833-0.663,1.892-0.991,3.173-0.991c0.554,0,1.051,0.037,1.493,0.112c0.442,0.08,0.855,0.196,1.24,0.346
					c0.739,0.321,1.405,0.754,1.99,1.301l-1.496,1.866c-0.462-0.357-0.953-0.653-1.472-0.886c-0.511-0.21-1.096-0.313-1.762-0.313
					c-0.76,0-1.289,0.146-1.59,0.435c-0.316,0.289-0.473,0.659-0.473,1.115c-0.017,0.29,0.102,0.543,0.357,0.757
					c0.231,0.24,0.641,0.392,1.229,0.459l1.993,0.161c1.254,0.098,2.158,0.504,2.715,1.216c0.518,0.692,0.774,1.574,0.774,2.641
					c-0.014,1.247-0.487,2.211-1.422,2.89c-0.924,0.694-2.113,1.05-3.552,1.066c-1.961,0-3.724-0.769-5.29-2.303L606.955,149.062z"
					/>
				<path fill="#0C4F0F" d="M620.162,147.538c0,1.033,0.277,1.817,0.834,2.354c0.519,0.546,1.198,0.819,2.039,0.819
					c0.98,0,1.856-0.418,2.627-1.254l1.748,1.6c-1.226,1.403-2.666,2.097-4.326,2.08c-0.631,0-1.247-0.099-1.85-0.299
					c-0.302-0.105-0.596-0.25-0.879-0.433c-0.301-0.155-0.582-0.35-0.844-0.582c-0.508-0.478-0.921-1.146-1.236-2.004
					c-0.351-0.828-0.522-1.901-0.522-3.222c0-1.272,0.15-2.328,0.452-3.173c0.301-0.857,0.687-1.534,1.156-2.029
					c0.476-0.503,1.012-0.867,1.608-1.092c0.584-0.22,1.163-0.332,1.734-0.332c1.373,0.017,2.533,0.499,3.482,1.45
					c0.963,0.964,1.454,2.294,1.468,3.986v2.13H620.162z M625.242,145.408c-0.032-1.002-0.28-1.763-0.753-2.277
					c-0.462-0.489-1.058-0.733-1.786-0.733c-0.726,0-1.321,0.244-1.787,0.733c-0.455,0.515-0.707,1.275-0.753,2.277H625.242z"/>
				<path fill="#0C4F0F" d="M630.931,149.062c0.984,1.101,2.252,1.649,3.808,1.649c0.694,0,1.265-0.146,1.707-0.434
					c0.441-0.29,0.658-0.693,0.658-1.216c0-0.462-0.129-0.784-0.392-0.966c-0.27-0.189-0.631-0.291-1.079-0.309l-2.133-0.198
					c-1.012-0.101-1.835-0.463-2.47-1.091c-0.648-0.61-0.981-1.465-0.995-2.563c0.014-1.322,0.449-2.312,1.307-2.972
					c0.834-0.663,1.892-0.991,3.174-0.991c0.557,0,1.054,0.037,1.493,0.112c0.441,0.08,0.855,0.196,1.24,0.346
					c0.742,0.321,1.404,0.754,1.993,1.301l-1.496,1.866c-0.466-0.357-0.956-0.653-1.475-0.886c-0.508-0.21-1.096-0.313-1.762-0.313
					c-0.756,0-1.286,0.146-1.587,0.435c-0.319,0.289-0.476,0.659-0.476,1.115c-0.018,0.29,0.101,0.543,0.357,0.757
					c0.234,0.24,0.644,0.392,1.229,0.459l1.993,0.161c1.254,0.098,2.159,0.504,2.715,1.216c0.519,0.692,0.778,1.574,0.778,2.641
					c-0.018,1.247-0.49,2.211-1.425,2.89c-0.925,0.694-2.109,1.05-3.552,1.066c-1.962,0-3.724-0.769-5.29-2.303L630.931,149.062z"/>
			</g>
		</g>
		<g>
			<path fill="#0C4F0F" d="M150.037,35.309l-3.393,3.957c-2.021,2.361-5.453,3.887-8.739,3.887c-1.179,0-2.263-0.194-3.225-0.576
				c-0.979-0.387-2.231-1.135-2.64-2.496c-0.352-1.175-0.005-2.599,0.979-4.007c0.233-0.336,0.527-0.685,0.898-1.07l5.577-5.78
				l-33.169-19.15L78.904,25.905c-5.829-3.867-13.66-5.167-20.184-3.118c-5.301,1.666-9.378,5.337-11.189,10.071
				c-1.356,3.549-1.351,7.481-0.048,11.187L22.384,58.537V95.86c-7.688,1.45-13.153,8.017-13.153,16.396
				c0,8.467,5.486,16.698,13.153,20.586v22.621l83.943,48.463l83.941-48.463V58.537L150.037,35.309z"/>
			<g>
				<path fill="#6ACF73" d="M41.813,118.457c0,7.264-5.889,11.766-13.152,10.053c-7.264-1.713-13.153-8.989-13.153-16.253
					c0-7.266,5.889-11.767,13.153-10.054C35.924,103.916,41.813,111.192,41.813,118.457z"/>
			</g>
			<g>
				<path fill="#FFFFFF" d="M80.21,36.036c3.71,6.246,0.946,13.123-6.175,15.359c-7.123,2.237-15.901-1.012-19.607-7.256
					c-3.711-6.248-0.948-13.125,6.172-15.361C67.722,26.541,76.501,29.79,80.21,36.036z"/>
			</g>
			<g>
				<polygon fill="#6ACF73" points="28.661,62.16 28.661,151.84 106.327,196.68 106.327,107 				"/>
			</g>
			<g>
				<polygon fill="#1B7D23" points="183.991,62.16 106.327,107 106.327,196.68 183.991,151.84 				"/>
			</g>
			<g>
				<path fill="#0C4F0F" d="M116.089,183.987L116.089,183.987c-2.58,0-4.382-2.104-4.382-5.113v-62.352
					c0-3.597,2.441-7.823,5.556-9.624l53.997-31.174c1.002-0.578,2-0.872,2.967-0.872c2.58,0,4.383,2.103,4.383,5.114v62.35
					c0,3.599-2.442,7.825-5.556,9.625l-53.997,31.174C118.055,183.693,117.057,183.987,116.089,183.987z M174.227,78.439
					c-0.32,0-0.737,0.139-1.173,0.393l-53.997,31.173c-2.004,1.157-3.762,4.204-3.762,6.518v62.352c0,0.57,0.103,1.526,0.794,1.526
					l0,0c0.321,0,0.738-0.139,1.174-0.393l53.997-31.173c2.003-1.156,3.762-4.205,3.762-6.519v-62.35
					C175.022,79.396,174.919,78.439,174.227,78.439z"/>
			</g>
			<g>
				<path fill="#FFFFFF" d="M66.542,77.605c5.136-5.136,12.481-4.154,16.409,2.193c3.924,6.348,2.942,15.658-2.193,20.792
					c-5.136,5.138-12.485,4.157-16.409-2.191C60.421,92.053,61.403,82.743,66.542,77.605z"/>
			</g>
			<g>
				<path fill="#FFFFFF" d="M151.412,43.352c-4.537,5.293-12.742,7.562-19.046,5.06c-6.752-2.68-8.765-9.815-4.493-15.934
					c0.457-0.653,0.975-1.261,1.529-1.836l-23.075-13.322L28.661,62.16L106.327,107l77.664-44.84L151.412,43.352z"/>
			</g>
			<g>
				<path fill="#165919" d="M161.362,128.455c-0.848,8.467-6.877,14.792-13.463,14.131c-6.587-0.659-11.234-8.062-10.387-16.529
					c0.854-8.467,6.88-14.793,13.466-14.134C157.565,112.585,162.215,119.987,161.362,128.455"/>
				<path fill="#FFFFFF" d="M144.826,139.293c-0.238-0.151-0.471-0.313-0.695-0.491l1.764-2.258
					c0.153,0.117,0.307,0.225,0.466,0.327L144.826,139.293z M157.687,133.853l-2.589-1.224c0.09-0.19,0.174-0.387,0.258-0.586
					l2.648,1.097C157.906,133.382,157.801,133.618,157.687,133.853 M140.242,132.793c-0.074-0.252-0.144-0.504-0.207-0.76
					l2.785-0.687c0.049,0.202,0.105,0.407,0.167,0.61L140.242,132.793z M156.447,126.365c-0.003-0.217-0.007-0.435-0.017-0.646
					l2.864-0.143c0.01,0.254,0.021,0.512,0.021,0.771L156.447,126.365z M142.638,125.584l-2.829-0.476
					c0.044-0.256,0.093-0.508,0.146-0.758l2.804,0.595C142.715,125.155,142.675,125.367,142.638,125.584 M145.088,119.744
					l-2.269-1.754c0.165-0.213,0.336-0.418,0.51-0.617l2.151,1.896C145.346,119.419,145.215,119.58,145.088,119.744
					 M150.511,116.921l-0.086-0.009c-0.1-0.013-0.245-0.017-0.392-0.017h-0.099l-0.048-2.868h0.147c0.241,0,0.485,0.011,0.731,0.039
					L150.511,116.921z"/>
				<path fill="#6ECE77" d="M162.924,129.341c-0.55,5.453-4.431,9.529-8.673,9.103c-4.243-0.427-7.234-5.191-6.686-10.646
					c0.547-5.454,4.428-9.528,8.668-9.102C160.479,119.12,163.467,123.887,162.924,129.341"/>
				<path fill="#6ECE77" d="M159.251,128.477c-0.55,5.451-4.433,9.526-8.676,9.103c-4.239-0.432-7.234-5.193-6.688-10.646
					c0.55-5.454,4.432-9.528,8.674-9.104C156.803,118.257,159.796,123.021,159.251,128.477"/>
				<polyline fill="#6ECE77" points="157.123,118.854 152.562,117.829 150.068,129.479 149.096,137.239 153.839,138.388 
					158.583,128.319 				"/>
				<path fill="#165919" d="M158.114,121.426c-0.128-0.037-0.255-0.062-0.381-0.077c-2.698-0.362-5.539,2.631-6.472,6.817
					c-0.496,2.21-0.394,4.417,0.278,6.218c0.631,1.679,1.688,2.789,2.985,3.121c2.808,0.71,5.878-2.359,6.853-6.742
					c0.495-2.21,0.394-4.418-0.281-6.216C160.467,122.864,159.409,121.755,158.114,121.426"/>
			</g>
		</g>
	</g>
</g>
</svg>
