<svg viewBox="0 0 213 53" version="1.1" xmlns="http://www.w3.org/2000/svg" xmlns:xlink="http://www.w3.org/1999/xlink" class="jsx-2635066189 logo--desktop"><defs class="jsx-2635066189"><linearGradient x1="50%" y1="0%" x2="50%" y2="100%" id="linearGradient-1" class="jsx-2635066189"><stop stop-color="#4A74ED" offset="0%" class="jsx-2635066189"></stop><stop stop-color="#2440D6" offset="100%" class="jsx-2635066189"></stop></linearGradient></defs><g id="Desktop" stroke="none" stroke-width="1" fill="none" fill-rule="evenodd" class="jsx-2635066189"><g id="01.02.Research" transform="translate(-124.000000, -23.000000)" class="jsx-2635066189"><g id="Group" transform="translate(-400.000000, 0.000000)" class="jsx-2635066189"><g id="Nav-Bar" transform="translate(400.000000, 0.000000)" class="jsx-2635066189"><g id="Logo" transform="translate(124.000000, 22.000000)" class="jsx-2635066189"><g id="Group-2" transform="translate(0.000000, 6.000000)" class="jsx-2635066189"><polygon id="Fill-1" fill="url(#linearGradient-1)" points="0 4.11843964 0 10.9602414 11.735798 10.9602414 11.735798 40.4029802 20.2242285 40.4029802 20.2242285 10.9602414 31.9596258 10.9602414 31.9596258 4.11843964" class="jsx-2635066189"></polygon><path d="M57.7366325,12.5932757 C56.4092384,11.5047712 54.4704338,10.9605189 51.9210199,10.9605189 L45.0055894,10.9605189 L45.0055894,23.6083387 L51.9210199,23.6083387 C54.4704338,23.6083387 56.4092384,23.0561586 57.7366325,21.9498162 C59.0640265,20.8438703 59.7279238,19.2892036 59.7279238,17.284627 C59.7279238,15.245564 59.0640265,13.6817802 57.7366325,12.5932757 Z M59.8845828,40.4028613 L52.8116921,30.2951495 L52.3925993,30.2951495 L45.0055894,30.2951495 L45.0055894,40.4028613 L36.5175596,40.4028613 L36.5175596,4.11832072 L52.3925993,4.11832072 C55.6411689,4.11832072 58.4614305,4.65464505 60.8541854,5.72531171 C63.2461391,6.79677117 65.0891854,8.31695135 66.3817219,10.2870414 C67.673457,12.2563387 68.3201258,14.5891315 68.3201258,17.284627 C68.3201258,19.9801225 67.665043,22.3041946 66.3556788,24.2564468 C65.0455132,26.2090955 63.1856391,27.7031135 60.7756556,28.7400865 L69.0012517,40.4028613 L59.8845828,40.4028613 Z" id="Fill-2" fill="url(#linearGradient-1)" class="jsx-2635066189"></path><polygon id="Fill-4" fill="url(#linearGradient-1)" points="122.60695 33.6642018 122.60695 40.4029405 94.2100132 40.4029405 94.2100132 4.1184 121.926225 4.1184 121.926225 10.8567423 102.645556 10.8567423 102.645556 18.7359135 119.673301 18.7359135 119.673301 25.2669405 102.645556 25.2669405 102.645556 33.6642018" class="jsx-2635066189"></polygon><path d="M87.9024404,12.3714523 L81.8885,8.93826306 L81.8856954,2.06950631 L87.9000364,5.5019027 L87.9024404,12.3714523 Z M77.3253576,14.8116685 L75.1725993,13.5836324 L81.1845364,10.1464793 L87.1980762,13.5792721 L85.0525298,14.8057225 L81.190947,12.6017586 L77.3253576,14.8116685 Z M87.910053,18.0458667 L87.9128576,24.9150198 L81.8989172,21.4818306 L81.8977152,18.2202811 L85.0537318,16.4154883 L87.910053,18.0458667 Z M77.4740033,27.4337225 L75.1834172,26.1264072 L81.1949536,22.6896505 L87.2084934,26.1220468 L84.7872914,27.5062631 L81.0639371,25.3807856 L77.4740033,27.4337225 Z M87.7826424,30.8256865 L87.785447,37.695236 L81.7727086,34.263236 L81.771106,30.8419387 L84.788894,29.1168216 L87.7826424,30.8256865 Z M75.0560066,38.9066234 L81.0683444,35.4698667 L87.0806821,38.9026595 L81.0695464,42.3394162 L75.0560066,38.9070198 L75.0560066,38.9066234 Z M80.3611755,29.0811459 L78.8835331,28.2380108 L80.3599735,27.3936865 L80.3611755,29.0811459 Z M83.3789636,28.3125333 L81.769904,29.2313802 L81.768702,27.3932901 L83.3789636,28.3125333 Z M77.4748046,29.0438847 L80.3619768,30.6917045 L80.3635795,34.263236 L74.3516424,37.6995964 L74.3484371,30.8304432 L77.4748046,29.0438847 Z M80.4877848,16.6168577 L78.7344868,15.6163532 L80.4865828,14.6146595 L80.4877848,16.6168577 Z M83.6434007,15.6112 L81.8969139,16.6097225 L81.8961126,14.6138667 L83.6434007,15.6112 Z M77.3257583,16.4218306 L80.4881854,18.2266234 L80.4897881,21.4826234 L74.4786523,24.9193802 L74.475447,18.0510198 L77.3257583,16.4218306 Z M80.4765662,2.0699027 L80.4793709,8.93865946 L74.4674338,12.376209 L74.4646291,5.50745225 L80.4765662,2.0699027 Z M73.0546987,4.70276757 L73.0587053,13.9867676 L75.9162285,15.6171459 L73.0659172,17.2471279 L73.0695232,26.5303351 L76.0644735,28.2395964 L72.9385066,30.0265514 L72.9429139,39.3105514 L81.071149,43.949182 L89.1961788,39.304209 L89.1925728,30.0198126 L86.1980232,28.3109477 L89.3235894,26.5247856 L89.3199834,17.2407856 L86.4628609,15.6104072 L89.3131722,13.9816144 L89.3099669,4.69682162 L81.1805298,0.0573981982 L73.0546987,4.70276757 Z" id="Fill-6" fill="url(#linearGradient-1)" class="jsx-2635066189"></path><path d="M87.9024404,12.3714523 L81.8885,8.93826306 L81.8856954,2.06950631 L87.9000364,5.5019027 L87.9024404,12.3714523 Z M77.3253576,14.8116685 L75.1725993,13.5836324 L81.1845364,10.1464793 L87.1980762,13.5792721 L85.0525298,14.8057225 L81.190947,12.6017586 L77.3253576,14.8116685 Z M87.910053,18.0458667 L87.9128576,24.9150198 L81.8989172,21.4818306 L81.8977152,18.2202811 L85.0537318,16.4154883 L87.910053,18.0458667 Z M77.4740033,27.4337225 L75.1834172,26.1264072 L81.1949536,22.6896505 L87.2084934,26.1220468 L84.7872914,27.5062631 L81.0639371,25.3807856 L77.4740033,27.4337225 Z M87.7826424,30.8256865 L87.785447,37.695236 L81.7727086,34.263236 L81.771106,30.8419387 L84.788894,29.1168216 L87.7826424,30.8256865 Z M75.0560066,38.9066234 L81.0683444,35.4698667 L87.0806821,38.9026595 L81.0695464,42.3394162 L75.0560066,38.9070198 L75.0560066,38.9066234 Z M80.3611755,29.0811459 L78.8835331,28.2380108 L80.3599735,27.3936865 L80.3611755,29.0811459 Z M83.3789636,28.3125333 L81.769904,29.2313802 L81.768702,27.3932901 L83.3789636,28.3125333 Z M77.4748046,29.0438847 L80.3619768,30.6917045 L80.3635795,34.263236 L74.3516424,37.6995964 L74.3484371,30.8304432 L77.4748046,29.0438847 Z M80.4877848,16.6168577 L78.7344868,15.6163532 L80.4865828,14.6146595 L80.4877848,16.6168577 Z M83.6434007,15.6112 L81.8969139,16.6097225 L81.8961126,14.6138667 L83.6434007,15.6112 Z M77.3257583,16.4218306 L80.4881854,18.2266234 L80.4897881,21.4826234 L74.4786523,24.9193802 L74.475447,18.0510198 L77.3257583,16.4218306 Z M80.4765662,2.0699027 L80.4793709,8.93865946 L74.4674338,12.376209 L74.4646291,5.50745225 L80.4765662,2.0699027 Z M73.0546987,4.70276757 L73.0587053,13.9867676 L75.9162285,15.6171459 L73.0659172,17.2471279 L73.0695232,26.5303351 L76.0644735,28.2395964 L72.9385066,30.0265514 L72.9429139,39.3105514 L81.071149,43.949182 L89.1961788,39.304209 L89.1925728,30.0198126 L86.1980232,28.3109477 L89.3235894,26.5247856 L89.3199834,17.2407856 L86.4628609,15.6104072 L89.3131722,13.9816144 L89.3099669,4.69682162 L81.1805298,0.0573981982 L73.0546987,4.70276757 Z" id="Stroke-8" stroke="url(#linearGradient-1)" stroke-width="0.5" class="jsx-2635066189"></path></g><g id="text" transform="translate(130.000000, 0.000000)" fill="#171A32" font-family="Montserrat-Regular, Montserrat" font-size="17.8500004" font-weight="normal" letter-spacing="0.2556483" linespacing="18" class="jsx-2635066189"><text id="Toda-Research-Instit" class="jsx-2635066189"><tspan x="0" y="17" class="jsx-2635066189">Toda</tspan><tspan x="0" y="35.96" class="jsx-2635066189">Research</tspan><tspan x="0" y="54.92" class="jsx-2635066189">Institute</tspan></text></g></g></g></g></g></g></svg>