<svg id="Layer_1" data-name="Layer 1" xmlns="http://www.w3.org/2000/svg" xmlns:xlink="http://www.w3.org/1999/xlink" viewBox="0 0 144.481 53">
  <defs>
    <style>
      .cls-1 {
        fill: url(#linear-gradient);
      }

      .cls-2 {
        fill: url(#linear-gradient-2);
      }

      .cls-3 {
        fill: url(#linear-gradient-3);
      }

      .cls-4 {
        fill: url(#linear-gradient-4);
      }

      .cls-5 {
        fill: none;
        stroke-width: 0.5px;
        stroke: url(#linear-gradient-4);
      }
    </style>
    <linearGradient id="linear-gradient" x1="-476.732" y1="611.222" x2="-476.732" y2="610.222" gradientTransform="matrix(31.96, 0, 0, -36.285, 15263.095, 22186.526)" gradientUnits="userSpaceOnUse">
      <stop offset="0" stop-color="#4a74ed"/>
      <stop offset="1" stop-color="#2440d6"/>
    </linearGradient>
    <linearGradient id="linear-gradient-2" x1="-476.986" y1="611.222" x2="-476.986" y2="610.222" gradientTransform="matrix(32.484, 0, 0, -36.285, 15557.978, 22186.526)" xlink:href="#linear-gradient"/>
    <linearGradient id="linear-gradient-3" x1="-474.754" y1="611.222" x2="-474.754" y2="610.222" gradientTransform="matrix(28.397, 0, 0, -36.285, 13600.899, 22186.524)" xlink:href="#linear-gradient"/>
    <linearGradient id="linear-gradient-4" x1="-461.744" y1="613.957" x2="-461.744" y2="612.957" gradientTransform="matrix(16.385, 0, 0, -43.892, 7657.786, 26952.204)" xlink:href="#linear-gradient"/>
  </defs>
  <title>trie1</title>
  <g>
    <polygon id="Fill-1" class="cls-1" points="10.937 8.615 10.937 15.457 22.673 15.457 22.673 44.9 31.161 44.9 31.161 15.457 42.897 15.457 42.897 8.615 10.937 8.615"/>
    <path id="Fill-2" class="cls-2" d="M68.674,17.09a8.981,8.981,0,0,0-5.816-1.633H55.943V28.105h6.915a8.883,8.883,0,0,0,5.816-1.658,5.737,5.737,0,0,0,1.991-4.666A5.719,5.719,0,0,0,68.674,17.09ZM70.822,44.9,63.749,34.792H55.943V44.9H47.455V8.615H63.33a20.566,20.566,0,0,1,8.461,1.607,12.545,12.545,0,0,1,5.528,4.562,12.466,12.466,0,0,1,1.938,7,12.223,12.223,0,0,1-1.964,6.972,12.427,12.427,0,0,1-5.58,4.484L79.938,44.9Z"/>
    <polygon id="Fill-4" class="cls-3" points="133.544 38.161 133.544 44.9 105.147 44.9 105.147 8.615 132.863 8.615 132.863 15.353 113.583 15.353 113.583 23.233 130.61 23.233 130.61 29.764 113.583 29.764 113.583 38.161 133.544 38.161"/>
    <path id="Fill-6" class="cls-4" d="M98.84,16.868l-6.014-3.433,0-6.869L98.837,10Zm-10.577,2.44L86.11,18.08l6.012-3.437,6.013,3.433L95.99,19.3l-3.862-2.2Zm10.584,3.235,0,6.869-6.014-3.433V22.717l3.156-1.8ZM88.411,31.93l-2.29-1.307,6.011-3.437,6.014,3.433L95.724,32,92,29.877ZM98.72,35.322l0,6.87L92.71,38.76l0-3.421,3.018-1.725ZM85.993,43.4l6.013-3.436L98.018,43.4l-6.011,3.437L85.993,43.4ZM91.3,33.578l-1.477-.843L91.3,31.89Zm3.018-.769-1.609.919V31.89Zm-5.9.732L91.3,35.188l0,3.572L85.289,42.2l0-6.869Zm3.013-12.427-1.753-1,1.752-1Zm3.156-1.006-1.747,1v-2Zm-6.318.811,3.162,1.8,0,3.256-6.011,3.437,0-6.868ZM91.414,6.567l0,6.868-6.012,3.438L85.4,10ZM83.992,9.2l0,9.284,2.857,1.631L84,21.744l0,9.283L87,32.736l-3.126,1.787,0,9.284,8.128,4.639,8.125-4.645,0-9.284-2.995-1.709,3.126-1.787,0-9.284L97.4,20.107l2.85-1.629,0-9.284-8.129-4.64Z"/>
    <path id="Stroke-8" class="cls-5" d="M98.84,16.868l-6.014-3.433,0-6.869L98.837,10Zm-10.577,2.44L86.11,18.08l6.012-3.437,6.013,3.433L95.99,19.3l-3.862-2.2Zm10.584,3.235,0,6.869-6.014-3.433V22.717l3.156-1.8ZM88.411,31.93l-2.29-1.307,6.011-3.437,6.014,3.433L95.724,32,92,29.877ZM98.72,35.322l0,6.87L92.71,38.76l0-3.421,3.018-1.725ZM85.993,43.4l6.013-3.436L98.018,43.4l-6.011,3.437L85.993,43.4ZM91.3,33.578l-1.477-.843L91.3,31.89Zm3.018-.769-1.609.919V31.89Zm-5.9.732L91.3,35.188l0,3.572L85.289,42.2l0-6.869Zm3.013-12.427-1.753-1,1.752-1Zm3.156-1.006-1.747,1v-2Zm-6.318.811,3.162,1.8,0,3.256-6.011,3.437,0-6.868ZM91.414,6.567l0,6.868-6.012,3.438L85.4,10ZM83.992,9.2l0,9.284,2.857,1.631L84,21.744l0,9.283L87,32.736l-3.126,1.787,0,9.284,8.128,4.639,8.125-4.645,0-9.284-2.995-1.709,3.126-1.787,0-9.284L97.4,20.107l2.85-1.629,0-9.284-8.129-4.64Z"/>
  </g>
</svg>
