<?xml version="1.0" encoding="UTF-8"?><!DOCTYPE svg PUBLIC "-//W3C//DTD SVG 1.1//EN" "http://www.w3.org/Graphics/SVG/1.1/DTD/svg11.dtd"><svg xmlns="http://www.w3.org/2000/svg" xmlns:xlink="http://www.w3.org/1999/xlink"><defs>
        <path d="M21 4.215V19.78c0 .535-.446.965-.992.965h-4.589v-6.773h2.339l.35-2.641h-2.693V9.645c0-.766.217-1.286 1.346-1.286H18.2V5.996a20.029 20.029 0 0 0-2.098-.105c-2.073 0-3.495 1.23-3.495 3.492v1.949H10.26v2.64h2.347v6.778H3.992c-.546 0-.992-.434-.992-.965V4.215c0-.531.446-.965.992-.965h16.012c.55 0 .996.434.996.965z" id="fb"/>
    
        <path d="M8.69 17.765c0 .079-.093.141-.21.141-.133.012-.226-.05-.226-.14 0-.079.093-.141.21-.141.12-.012.226.05.226.14zm-1.255-.175c-.028.078.053.168.174.191.105.04.226 0 .25-.078.024-.078-.053-.168-.174-.203-.104-.027-.221.012-.25.09zm1.783-.067c-.117.028-.198.102-.186.192.012.078.117.129.238.101.117-.027.198-.101.186-.18-.012-.074-.121-.124-.238-.113zM11.87 2.555C6.278 2.555 2 6.668 2 12.085c0 4.333 2.815 8.04 6.835 9.345.516.09.697-.22.697-.473 0-.242-.012-1.578-.012-2.399 0 0-2.822.586-3.415-1.164 0 0-.46-1.136-1.121-1.43 0 0-.924-.613.064-.6 0 0 1.004.077 1.557 1.007.883 1.508 2.363 1.074 2.94.816.092-.625.354-1.058.645-1.316-2.255-.242-4.529-.559-4.529-4.316 0-1.075.307-1.614.952-2.301C6.508 9 6.165 7.953 6.718 6.6 7.56 6.348 9.5 7.656 9.5 7.656a9.76 9.76 0 0 1 2.532-.332 9.76 9.76 0 0 1 2.533.332s1.939-1.312 2.782-1.055c.552 1.356.21 2.399.105 2.653.645.691 1.04 1.23 1.04 2.3 0 3.77-2.375 4.07-4.63 4.317.372.309.686.894.686 1.812 0 1.317-.012 2.946-.012 3.266 0 .254.186.563.698.473C19.266 20.125 22 16.418 22 12.086c0-5.418-4.536-9.531-10.129-9.531zM5.919 16.027c-.052.04-.04.13.029.203.064.063.157.09.21.04.052-.04.04-.13-.029-.204-.064-.062-.157-.09-.21-.039zm-.435-.316c-.028.05.012.113.093.152.064.04.145.027.173-.027.028-.051-.012-.113-.093-.153-.08-.023-.145-.011-.173.028zM6.79 17.1c-.064.051-.04.168.053.243.092.09.21.101.262.039.052-.051.028-.168-.053-.243-.088-.09-.21-.101-.262-.039zm-.46-.574c-.064.04-.064.14 0 .23.065.09.174.13.226.09.065-.05.065-.152 0-.242-.056-.09-.16-.129-.225-.078z" id="github"/>
    
        <path d="M19.714 3.25H4.282C3.575 3.25 3 3.816 3 4.512v14.976c0 .696.575 1.262 1.282 1.262h15.432c.707 0 1.286-.566 1.286-1.262V4.512c0-.696-.579-1.262-1.286-1.262zm-11.274 15H5.772V9.898h2.672v8.352H8.44zM7.106 8.758c-.856 0-1.547-.676-1.547-1.504S6.25 5.75 7.106 5.75c.852 0 1.547.676 1.547 1.504 0 .832-.69 1.504-1.547 1.504zm11.335 9.492h-2.668v-4.063c0-.968-.02-2.214-1.386-2.214-1.39 0-1.604 1.054-1.604 2.144v4.133h-2.667V9.898h2.559v1.141h.036c.358-.656 1.23-1.348 2.527-1.348 2.7 0 3.203 1.73 3.203 3.98v4.579z" id="ln"/>
    
        <path d="M12 2.313C6.476 2.313 2 6.647 2 12c0 5.352 4.476 9.688 10 9.688S22 17.352 22 12s-4.476-9.688-10-9.688zm4.911 6.636l-1.64 7.492c-.122.532-.448.66-.904.41l-2.5-1.785-1.206 1.125c-.133.13-.246.239-.504.239l.178-2.465 4.633-4.055c.201-.172-.045-.27-.31-.098L8.93 13.306l-2.467-.746c-.537-.164-.549-.52.113-.77l9.64-3.601c.448-.157.84.105.694.761z" id="tm"/>
    
        <path d="M19.944 7.926c.013.178.013.356.013.533 0 5.42-4.124 11.663-11.663 11.663-2.322 0-4.48-.673-6.294-1.84.33.038.647.05.99.05 1.916 0 3.68-.647 5.089-1.75a4.106 4.106 0 0 1-3.833-2.843c.254.038.508.063.774.063.368 0 .736-.05 1.079-.14A4.1 4.1 0 0 1 2.812 9.64v-.051c.546.304 1.18.495 1.853.52a4.096 4.096 0 0 1-1.827-3.414c0-.761.203-1.459.558-2.068a11.651 11.651 0 0 0 8.452 4.29 4.627 4.627 0 0 1-.102-.94 4.097 4.097 0 0 1 4.1-4.099 4.09 4.09 0 0 1 2.994 1.295 8.07 8.07 0 0 0 2.602-.99 4.088 4.088 0 0 1-1.802 2.259A8.217 8.217 0 0 0 22 5.807a8.811 8.811 0 0 1-2.056 2.12z" id="tw"/>
    
        <path d="M21.085 7.362a2.398 2.398 0 0 0-1.676-1.708C17.929 5.25 12 5.25 12 5.25s-5.93 0-7.409.404a2.398 2.398 0 0 0-1.676 1.708c-.396 1.507-.396 4.652-.396 4.652s0 3.144.396 4.651a2.36 2.36 0 0 0 1.676 1.681c1.48.404 7.409.404 7.409.404s5.93 0 7.409-.404a2.362 2.362 0 0 0 1.676-1.681c.396-1.507.396-4.651.396-4.651s0-3.145-.396-4.652zm-11.024 7.506v-5.71l4.956 2.856-4.956 2.854z" id="yb"/>
    </defs><symbol id="icon-chevron-down" viewBox="0 0 14 9">
    <title>
        chevron-down
    </title>
    <g id="Page-1" fill="none" fill-rule="evenodd" stroke-linecap="round" stroke-linejoin="round">
        <g id="Slide-1-Copy-15" transform="translate(-284 -318)" stroke="#73F5E2" stroke-width="2">
            <g id="Group-15" transform="translate(274.609 309)">
                <g id="Group" transform="translate(10.618 .336)">
                    <g id="chevron-down" transform="translate(0 10.342)">
                        <path id="Shape" d="M0 0l5.605 5.605L11.21 0"/>
                    </g>
                </g>
            </g>
        </g>
    </g>
</symbol><symbol id="icon-email" viewBox="0 0 512 512">
    <path fill="#73F5E2" d="M502.3 190.8c3.9-3.1 9.7-.2 9.7 4.7V400c0 26.5-21.5 48-48 48H48c-26.5 0-48-21.5-48-48V195.6c0-5 5.7-7.8 9.7-4.7 22.4 17.4 52.1 39.5 154.1 113.6 21.1 15.4 56.7 47.8 92.2 47.6 35.7.3 72-32.8 92.3-47.6 102-74.1 131.6-96.3 154-113.7zM256 320c23.2.4 56.6-29.2 73.4-41.4 132.7-96.3 142.8-104.7 173.4-128.7 5.8-4.5 9.2-11.5 9.2-18.9v-19c0-26.5-21.5-48-48-48H48C21.5 64 0 85.5 0 112v19c0 7.4 3.4 14.3 9.2 18.9 30.6 23.9 40.7 32.4 173.4 128.7 16.8 12.2 50.2 41.8 73.4 41.4z"/>
</symbol><symbol id="icon-facebook">
    
    <use fill="#73F5E2" xlink:href="#fb" transform="translate(-2.771 -2.735)"/>
</symbol><symbol id="icon-github">
    
    <use fill="#73F5E2" xlink:href="#github" transform="translate(-1.855 -1.735)"/>
</symbol><symbol id="icon-linkedin">
    
    <use fill="#73F5E2" xlink:href="#ln" transform="translate(-2.084 -2.735)"/>
</symbol><symbol id="icon-medium" viewBox="0 0 448 512">
    <path fill="#73F5E2" d="M0 32v448h448V32H0zm372.2 106.1l-24 23c-2.1 1.6-3.1 4.2-2.7 6.7v169.3c-.4 2.6.6 5.2 2.7 6.7l23.5 23v5.1h-118V367l24.3-23.6c2.4-2.4 2.4-3.1 2.4-6.7V199.8l-67.6 171.6h-9.1L125 199.8v115c-.7 4.8 1 9.7 4.4 13.2l31.6 38.3v5.1H71.2v-5.1l31.6-38.3c3.4-3.5 4.9-8.4 4.1-13.2v-133c.4-3.7-1-7.3-3.8-9.8L75 138.1V133h87.3l67.4 148L289 133.1h83.2v5z"/>
</symbol><symbol id="icon-telegram">
    
    <use fill="#73F5E2" xlink:href="#tm" transform="translate(-1.313 -1.735)"/>
</symbol><symbol id="icon-twitter">
    
    <use fill="#73F5E2" xlink:href="#tw" transform="translate(-2 -3.735)"/>
</symbol><symbol id="icon-youtube">
    
    <use fill="#73F5E2" xlink:href="#yb" transform="translate(-1.542 -4.735)"/>
</symbol></svg>